<svg xmlns="http://www.w3.org/2000/svg" data-name="Layer 1" viewBox="0 0 900 600"><defs><clipPath id="a"><path fill="none" d="M216.501 238.419h268.052v204.302H216.501z"/></clipPath></defs><path fill="#ffe3c2" d="M295.91 500.658c-40.102-8.046-78.246-21.675-108.492-51.623-24.47-24.23-40.34-56.702-45.766-90.71-6.971-43.702 4.034-89.648 28.663-126.256 21.526-31.996 37.567-83.978 71.857-100.306 42.446-20.211 99.606-12.934 143.911-29.105 80.746-29.472 67.403-37.262 152.529-26.895 49.246 5.997 98.63 20.72 137.66 52.453a197.856 197.856 0 0 1 30.29 30.715c63.596 80.348 64.804 208.602-3.335 286.702-18.81 21.56-42.802 38.453-68.85 50.135-57.948 25.988-123.913 27.39-186.292 24.692-70.674-3.058-42.238-3.776-112.413-13.323-13.325-1.813-26.648-3.848-39.762-6.479Z"/><path fill="#ffe3c2" d="M695.423 483.352c.574-.272 1.143-.554 1.715-.83a30.256 30.256 0 0 0 1.588-.824c-.149.082-.593.326.1-.054 1.437-.79 2.868-1.593 4.28-2.429q.832-.491 1.656-.996l.658-.405.327-.205q.676-.426-.044.033c.059-.199 1.535-.639 1.71-.713a14.065 14.065 0 0 0 2.663-1.561c4.323-3.068 8.48-6.415 12.516-9.848 2.267-1.929 4.38-4.098 6.493-6.188 1.928-1.905 3.854-3.834 5.639-5.874q5.106-5.837 9.75-12.06a230.184 230.184 0 0 0 27.855-48.719 240.732 240.732 0 0 0 15.449-53.937 237.202 237.202 0 0 0 2.9-27.337 216.82 216.82 0 0 0-4.066-56.18c-1.06-5.236-2.308-10.438-3.683-15.6-.584-2.195-1.432-4.267-2.177-6.407q-1.143-3.28-2.39-6.522a17.719 17.719 0 0 0-2.314-4.848 16.542 16.542 0 0 0-5.047-4.025l3.016 2.38a22.317 22.317 0 0 0-1.88-2.17c-1.858-2.064-4.811-3.363-7.556-2.137a7.685 7.685 0 0 0-2.719 2.021 6.91 6.91 0 0 0-1.351 4.694 28.172 28.172 0 0 0 .008 2.907l.584-3.797a17.19 17.19 0 0 0-.869 3.268 11.891 11.891 0 0 0 .395 5.842c.343 1.228.72 2.446 1.068 3.673.712 2.507 1.298 5.05 2.011 7.555l-.61-2.474c.416 3.895 1.823 7.728 2.765 11.53l-.627-2.544a244.163 244.163 0 0 1 6.654 49.481q.261 7.113.09 14.232l.06-2.435a238.534 238.534 0 0 1-5.913 47.327q-1.514 6.615-3.408 13.135l.606-2.085a234.668 234.668 0 0 1-16.853 42.434q-2.967 5.723-6.267 11.264l.969-1.625a212.712 212.712 0 0 1-16.092 23.36c-3.2 4.026-6.4 8.046-9.847 11.866-1.714 1.9-3.355 3.84-5.16 5.658-.4.405-.789.841-1.22 1.214 1.243-1.076-.335.318-.625.594q-1.539 1.464-3.123 2.88a26.76 26.76 0 0 0-3.713 3.569c-.15.197-.31.388-.464.581s-.31.386-.467.578q.524-.462.151-.144c-.554.435-1.083.905-1.63 1.35-2.284 1.858-4.642 3.628-7.012 5.372a3.575 3.575 0 0 0 3.451 6.175ZM702.424 127.666q3.638 2.921 7.073 6.08c.275.255.55.508.823.765.061.059.948.923.32.293.694.697 1.348 1.434 2.054 2.119 1.166 1.13 2.36 2.227 3.511 3.373.266.264.53.531.795.796.895.897-.68-.713.188.193.512.535 1.025 1.068 1.531 1.609 1.016 1.084 2.046 2.155 3.054 3.245q3.16 3.417 6.085 7.04a156.896 156.896 0 0 1 10.618 14.879q1.196 1.896 2.33 3.83c.378.645.748 1.295 1.12 1.944.668 1.169-.678-1.242-.035-.063.237.436.477.871.712 1.309q2.115 3.939 3.972 8.01c1.291 2.83 2.65 5.63 3.898 8.481q.898 2.05 1.728 4.13a12.865 12.865 0 0 0 1.404 3.036 6.726 6.726 0 0 0 4.208 2.595c3.025.445 5.174-1.992 5.645-4.751.382-2.238-.674-4.649-1.371-6.777a90.19 90.19 0 0 0-3.219-8.754 132.681 132.681 0 0 0-9.406-17.054 132.288 132.288 0 0 0-26.113-29.768 118.97 118.97 0 0 0-17.797-11.797 3.05 3.05 0 0 0-3.844 1.256 3.087 3.087 0 0 0 .716 3.98ZM162.77 203.376a11.752 11.752 0 0 1-1.564.572 9.422 9.422 0 0 0-2.755 1.406c-.932.699-1.829 1.451-2.726 2.194-1.756 1.452-3.5 2.9-5.117 4.502-3.633 3.6-7.13 7.33-10.388 11.272a132.892 132.892 0 0 0-15.848 24.736 144.454 144.454 0 0 0-15.019 54.492 111.734 111.734 0 0 0-.053 17.27 67.164 67.164 0 0 0 1.004 7.585c.26 1.31.53 2.62.844 3.919a11.495 11.495 0 0 0 2.186 4.816 9.596 9.596 0 0 0 2.355 2.109 6.31 6.31 0 0 0 8.615-1.202 9.952 9.952 0 0 0 1.78-3.033 14.95 14.95 0 0 0 .678-2.472 17.918 17.918 0 0 0-.019-3q-.078-2.41-.068-4.82l-.01 2.178c.017-3.186-.105-6.366-.092-9.551l-.01 2.27c.017-2.678.062-5.354.072-8.031l-.01 2.304a140.54 140.54 0 0 1 4.795-35.347l-.58 2.157a150.484 150.484 0 0 1 14.344-35.107l-1.051 1.846c2.769-4.851 5.764-9.615 8.974-14.186 3.208-4.57 6.778-8.841 10.342-13.126a108.393 108.393 0 0 1 3.128-3.573 11.827 11.827 0 0 0 2.11-2.832c.167-.343.306-.707.469-1.054.202-.432.877-1.384-.02-.084a5.499 5.499 0 0 0-.057-6.56c-1.461-1.708-4.158-2.747-6.309-1.65Z"/><path fill="#ffca9f" d="M177.106 201.752h547.606v19.187H177.106z"/><path fill="#ffb36e" d="M177.106 193.008h547.606v19.187H177.106zM189.597 220.939H712.22v255.129H189.597z"/><path fill="#ffca9f" d="M724.712 201.752H177.106l-22.186-37.175h591.977l-22.185 37.175zM682.353 476.068V279.577a44.07 44.07 0 0 0-44.07-44.07h-62.958a44.07 44.07 0 0 0-44.07 44.07v196.49h-354.15v52.166h547.606v-52.165Z"/><path fill="#376f92" d="M595.08 254.394h23.448a50.335 50.335 0 0 1 50.334 50.334v209.115H544.746V304.728a50.335 50.335 0 0 1 50.334-50.334Z"/><path fill="#78c1d0" d="M606.354 274.18a44.07 44.07 0 0 1 44.07 44.071v100.705h-88.14V318.251a44.07 44.07 0 0 1 44.07-44.07Z"/><path fill="#ffb957" d="M550.153 379.608h6.735v39.349h-6.735z"/><path fill="#52aacc" d="M380.107 95.13h120.86a16.246 16.246 0 0 1 16.246 16.246v27.652H363.86v-27.652a16.246 16.246 0 0 1 16.246-16.246Z"/><path fill="#d3e4ea" d="M398.51 105.666h84.055a16.246 16.246 0 0 1 16.246 16.246v17.116H382.263v-17.116a16.246 16.246 0 0 1 16.246-16.246Z"/><path fill="#52aacc" d="M644.713 180.585H236.361l48.776-41.557h310.8l48.776 41.557z"/><path fill="#376f92" d="M236.36 180.585h51.118v11.902a25.559 25.559 0 0 1-25.559 25.558 25.559 25.559 0 0 1-25.558-25.558v-11.902Z"/><path fill="#4994ba" d="M287.478 180.585h51.117v11.902a25.559 25.559 0 0 1-25.558 25.558 25.559 25.559 0 0 1-25.559-25.558v-11.902Z"/><path fill="#376f92" d="M338.595 180.585h51.117v11.902a25.559 25.559 0 0 1-25.558 25.558 25.559 25.559 0 0 1-25.559-25.558v-11.902Z"/><path fill="#4994ba" d="M389.712 180.585h51.118v11.902a25.559 25.559 0 0 1-25.559 25.558 25.559 25.559 0 0 1-25.559-25.558v-11.902Z"/><path fill="#376f92" d="M440.83 180.585h51.117v11.902a25.559 25.559 0 0 1-25.559 25.558 25.559 25.559 0 0 1-25.558-25.558v-11.902Z"/><path fill="#4994ba" d="M491.947 180.585h51.117v11.902a25.559 25.559 0 0 1-25.558 25.558 25.559 25.559 0 0 1-25.56-25.558v-11.902Z"/><path fill="#376f92" d="M543.064 180.585h51.117v11.902a25.559 25.559 0 0 1-25.558 25.558 25.559 25.559 0 0 1-25.559-25.558v-11.902Z"/><path fill="#4994ba" d="M594.181 180.585H645.3v11.902a25.559 25.559 0 0 1-25.559 25.558 25.559 25.559 0 0 1-25.559-25.558v-11.902Z"/><path fill="#63bfdb" d="m338.595 180.585 21.462-41.557H319.67l-32.192 41.557h51.117zM440.83 180.585v-41.557h-34.534l-16.584 41.557h51.118zM543.064 180.585l-21.461-41.557h-40.387l10.731 41.557h51.117zM594.181 180.585l-31.021-41.557h32.777l49.362 41.557h-51.118z"/><path fill="#d3e4ea" d="M214.926 238.419h268.052v204.302H214.926z"/><g clip-path="url(#a)"><path fill="#376f92" d="M295.477 345.085c16.21 26.73 4.832 42.94 4.266 43.505-.29.29-.856.857-1.146.857a70.629 70.629 0 0 1-24.742 5.412v24.176c1.422 3.12 9.955 19.054 21.056 23.886a2.827 2.827 0 0 1 1.422 3.7 2.997 2.997 0 0 1-3.7 1.423c-7.967-3.41-14.511-11.377-18.778-17.632v18.198a2.844 2.844 0 1 1-5.688 0v-18.488c-4.267 6.545-10.811 14.511-19.054 18.198a2.955 2.955 0 0 1-3.7-1.423 2.81 2.81 0 0 1 1.422-3.686c12.233-5.412 21.332-24.176 21.332-24.466v-23.61a79.2 79.2 0 0 1-25.033-5.398 5.135 5.135 0 0 1-1.422-1.147c-.566-.566-10.52-15.919 4.267-43.23 4.266-8.242 2.568-17.63-5.109-28.442-.58-.566-7.11-15.643-4.556-21.332a4.516 4.516 0 0 1 3.7-2.554c5.399-.566 13.931-2.844 15.353-6.254a25.713 25.713 0 0 0 .567-5.979 2.877 2.877 0 0 1 3.99-2.554 20.493 20.493 0 0 0 7.677 2.554v-8.533a3.059 3.059 0 0 1 2.844-2.844 2.846 2.846 0 0 1 2.844 2.844v8.533a23.14 23.14 0 0 0 8.243-2.554 2.736 2.736 0 0 1 3.99 2.264c.276 3.134.856 6.835 1.422 7.69 1.698 2.265 9.955 4.267 14.788 4.833a3.971 3.971 0 0 1 3.41 2.554c2.278 5.413-7.11 21.332-7.387 21.332-7.4 8.823-8.257 18.778-2.278 28.167Zm0 0"/><path fill="#ffb957" d="M358.004 314.319v-1.988c-3.968 0-7.927.169-12.054.169-3.959 0-7.926-.169-11.885-.329a3.167 3.167 0 0 1-.169 1.154c0 .329-.16.657-.16.994q12.13.493 24.268 0Zm-27.241-19.155c.497 4.296 2.636 8.087 3.133 12.214a10.74 10.74 0 0 1 .169 2.317q12.13.492 24.267 0c.329-1.491.994-2.974 1.483-4.456.994-2.645 2.476-5.779 2.316-8.752 0-3.302-1.154-6.444-.994-9.746.169-2.636 0-5.281.169-7.918 0-1.49.985-5.778.328-6.94a31.974 31.974 0 0 0-2.476-3.96c-2.308 1.82-1.323 7.261-1.323 9.906 0 1.82-.16 3.8-.328 5.61-.169 2.645.168 5.122-2.477 5.779-2.805.665-4.784 1.162-6.932 3.141-1.154.986-1.82 1.483-2.476 1.483-1.154.168-1.82-1.154-3.968-2.637-3.133-1.987-4.127-3.47-4.953-6.94-.985-3.462-.657-7.093-.657-10.732 0-.825.657-5.281-.657-5.441-1.162-.169-2.148 2.965-2.645 3.79-.657.994-.168 4.128-.168 5.45v5.947c0 4.127-2.308 7.59-1.811 11.885Zm46.556 49.033c-2.477-3.96-4.128-8.415-6.933-12.383-3.47-4.953-9.746-9.409-11.725-15.187-4.128.168-8.255.329-12.543.329-4.295 0-8.751-.16-13.047-.329-1.483 2.973-3.96 5.45-6.107 7.926-7.1 8.415-11.885 18.49-16.013 28.724-2.805 6.772-5.121 8.583 7.758 15.027a53.596 53.596 0 0 0 22.617 5.281c12.382 0 24.436-3.798 35.664-8.751 2.148-.986 4.288-1.98 5.45-3.8 2.965-4.784-2.645-12.71-5.121-16.837Zm0 0"/><path fill="#133852" d="M365.83 272.016h-38.52a5.44 5.44 0 0 1-4.538-8.438l.138-.21 23.66-9.156 23.66 9.157.138.209a5.44 5.44 0 0 1-4.537 8.438Zm-41.872-7.365a3.865 3.865 0 0 0 3.351 5.79h38.522a3.865 3.865 0 0 0 3.35-5.79l-22.61-8.75Z"/><path fill="#133852" d="M346.45 255.844a.787.787 0 0 1-.788-.787v-3.328a4.885 4.885 0 0 1 .92-9.683 4.879 4.879 0 0 1 4.857 4.356.788.788 0 1 1-1.566.171 3.311 3.311 0 1 0-3.398 3.668l.762.025v4.79a.787.787 0 0 1-.787.788Z"/><path fill="#f89017" d="M254.432 291.446c3.04 0 3.046-4.725 0-4.725-3.04 0-3.045 4.725 0 4.725ZM260.905 297.447c3.04 0 3.046-4.725 0-4.725-3.04 0-3.045 4.725 0 4.725Z"/><path fill="#ce185e" d="M257.55 293.431a1.182 1.182 0 0 0 0-2.363 1.182 1.182 0 0 0 0 2.363ZM265.678 298.156a1.182 1.182 0 0 0 0-2.362 1.182 1.182 0 0 0 0 2.362ZM274.94 297.495a1.182 1.182 0 0 0 0-2.363 1.182 1.182 0 0 0 0 2.363ZM283.066 292.959a1.182 1.182 0 0 0 0-2.363 1.182 1.182 0 0 0 0 2.363Z"/><path fill="#f89017" d="M270.686 300.188c3.04 0 3.046-4.725 0-4.725-3.04 0-3.045 4.725 0 4.725ZM279.097 296.55c3.04 0 3.046-4.726 0-4.726-3.04 0-3.045 4.726 0 4.726ZM286.894 291.73c3.04 0 3.045-4.725 0-4.725-3.04 0-3.046 4.725 0 4.725Z"/></g><rect width="287.634" height="15.867" x="205.135" y="442.721" fill="#4994ba" rx="2"/><path fill="#fff" d="M236.996 320.156a1.575 1.575 0 0 1-1.113-2.689l72.462-72.462a1.575 1.575 0 1 1 2.228 2.227l-72.463 72.463a1.57 1.57 0 0 1-1.114.46ZM269.087 323.16a1.575 1.575 0 0 1-1.09-2.713l44.653-42.72a1.575 1.575 0 0 1 2.178 2.276l-44.653 42.72a1.572 1.572 0 0 1-1.088.438ZM343.62 429.679a1.575 1.575 0 0 1-1.114-2.689l72.462-72.462a1.575 1.575 0 1 1 2.228 2.227l-72.463 72.462a1.57 1.57 0 0 1-1.114.462ZM375.71 432.684a1.575 1.575 0 0 1-1.09-2.714l44.653-42.72a1.575 1.575 0 0 1 2.178 2.276l-44.653 42.72a1.572 1.572 0 0 1-1.088.438Z"/><path fill="#fd8b66" d="m373.953 500.125-3.859 12.457s-21.354 2.224-26.693 16.015h43.922a2.578 2.578 0 0 0 2.543-2.154l4.386-26.318ZM482.25 491.242l.738 15.78s-19.23 6.788-19.411 21.575l42.829-8.828c1.18-.44.193-5.433-.048-6.67l-5.09-28.952Z"/><path fill="#e6560f" d="m403.886 313.497-35.06 189.014s21.86-3.3 35.06 6.187 34.236-8.119 42.403-7.181c6.176.709 23.017 3.145 32.504-.455s15.674-8.549 30.11-1.124c0 0 8.25 2.475 14.85-3.712 0 0-29.948-60.535-43.147-101.782s-19.283-67.439-39.958-80.947Z"/><path fill="#e8a452" d="m595.273 394.857-3.921-5.958 3.279-5.855-60.678-25.635-36.537 67.144 97.857-29.696z"/><path fill="#5e1212" d="M407.599 211.514s1.031-12.065 7.115-14.334 6.703.206 10.518 0a14.873 14.873 0 0 0 6.909-2.371s2.681 5.465 1.856 9.074 1.238 12.89 3.3 12.168 0-7.115 3.918-5.053 2.784 8.868-1.959 9.487c0 0-2.165 11.652-.103 16.808 0 0 9.9 6.6 10.518 13.405s1.031 14.643 3.3 16.087 17.117-.207 16.499-10.725-7.837-15.88-6.6-26.191-13.199-23.717-14.643-29.286-11.549-18.355-18.148-17.736-17.53-3.506-22.48 3.918-6.187 16.087 0 24.749Z"/><path fill="#fd8b66" d="M439.256 220.485c4.744-.619 5.878-7.425 1.96-9.487-3.92-2.062-1.857 4.331-3.92 5.053-2.062.722-4.124-8.559-3.299-12.168s-1.856-9.075-1.856-9.075a14.872 14.872 0 0 1-6.909 2.372c-3.815.206-4.434-2.268-10.518 0-6.084 2.269-7.115 14.334-7.115 14.334s-2.475 19.798 9.693 22.067c0 0 1.237 10.724-1.856 14.849 0 0-9.41 12.815 23.665-11.281-1.97-5.224.155-16.664.155-16.664Z"/><path fill="#d04719" d="M420.695 203.831a1.29 1.29 0 0 0 0-2.578 1.29 1.29 0 0 0 0 2.578ZM440.493 223.066c3.318 0 3.324-5.156 0-5.156-3.317 0-3.323 5.156 0 5.156Z"/><path fill="#5e1212" d="M426.573 212.601a1.5 1.5 0 0 0 0-3 1.5 1.5 0 0 0 0 3ZM413.27 211.467a1.5 1.5 0 0 0 0-3 1.5 1.5 0 0 0 0 3ZM416.467 203.542a.996.996 0 0 1-.624-.219c-2.08-1.664-5.363-.383-5.396-.369a1 1 0 0 1-.749-1.854c.178-.072 4.393-1.737 7.394.66a1 1 0 0 1-.625 1.782ZM431.32 205.426a.995.995 0 0 1-.623-.219c-2.096-1.678-5.36-.384-5.394-.37a1 1 0 1 1-.75-1.854c.177-.07 4.392-1.739 7.393.662a1 1 0 0 1-.625 1.78Z"/><path fill="#d04719" d="M418.839 206.667a21.6 21.6 0 0 1-.729 3.678 48.902 48.902 0 0 1-1.125 3.463l-.609 1.669-.265.79-.085.318c-.01.022-.012.07-.032.013-.045-.098-.053-.09-.06-.087-.048.022.113.18.33.283a3.748 3.748 0 0 0 .77.276c.565.17 1.174.275 1.805.424a6.22 6.22 0 0 1-1.865.556 4.59 4.59 0 0 1-1.045.012 1.91 1.91 0 0 1-1.244-.596 1.166 1.166 0 0 1-.271-.489 1.987 1.987 0 0 1-.065-.443 4.491 4.491 0 0 1 .029-.593 8.935 8.935 0 0 1 .177-.994 17.187 17.187 0 0 1 .55-1.819 23.004 23.004 0 0 1 1.557-3.383 16.634 16.634 0 0 1 2.177-3.078ZM420.695 222.135c.49-.332.851-.593 1.186-.856.332-.254.62-.493.917-.735l.923-.791a10.93 10.93 0 0 1 1.207-.918 2.727 2.727 0 0 1-.072 1.653 3.272 3.272 0 0 1-.956 1.375 3.09 3.09 0 0 1-1.567.685 2.162 2.162 0 0 1-1.638-.413ZM417.292 233.58s7.218 1.135 12.374-2.68c0 0-4.265 6.7-12.135 8.042a20.91 20.91 0 0 0-.239-5.361Z"/><path fill="#e6560f" d="M452.97 266.785c-2.268-1.444-2.68-9.281-3.299-16.087s-10.518-13.405-10.518-13.405c-.018-.046-.034-.097-.052-.144-23.214 16.912-25.5 15.64-24.799 13.38 0 0-9.693 14.09-13.56 20.122s-6.728 14.076 2.668 25.213v10.208h38.63v-3.867l18.87-6.032-7.03-29.077a2.716 2.716 0 0 1-.91-.311Z"/><path d="M403.65 287.74c-2.05-13.721 8.59-17.222 8.698-17.257l.3.955c-.407.128-9.93 3.3-8.009 16.154Z"/><path fill="#fd8b66" d="m404.712 306.072-.826 7.425h36.762v-7.425h-35.936zM457.734 297.189s9.467 12.699 11.53 21.567 14.642 39.184 14.642 39.184 11.807 6.29 11.807 9.384v1.856s1.005 9.358 0 9.513c0 0-3.478 1.703-13.766-5.414a27.587 27.587 0 0 1-5.337-8.584c-1.546-4.563-24.361-44.547-24.361-44.547l-10.209-17.943Z"/><path fill="#d04719" d="M460.91 309.785a3.954 3.954 0 0 1 1.744.597 5.029 5.029 0 0 1 1.296 1.153 4.422 4.422 0 0 1 .826 1.593 2.444 2.444 0 0 1-.153 1.916c-.465-.495-.854-.796-1.224-1.156a11.643 11.643 0 0 1-1.016-1.111 8.91 8.91 0 0 1-.861-1.312 6.091 6.091 0 0 1-.611-1.68ZM491.46 374.13a5.691 5.691 0 0 1 2.488.215 5.625 5.625 0 0 1 2.205 1.174 5.625 5.625 0 0 1-2.489-.215 5.691 5.691 0 0 1-2.205-1.174ZM492.31 370.263a3.584 3.584 0 0 1 1.96.109 3.544 3.544 0 0 1 1.652 1.06 3.54 3.54 0 0 1-1.96-.11 3.58 3.58 0 0 1-1.652-1.06ZM492.31 366.783a3.255 3.255 0 0 1 1.863.107 3.217 3.217 0 0 1 1.54 1.053 3.216 3.216 0 0 1-1.863-.107 3.252 3.252 0 0 1-1.54-1.053Z"/><path fill="#ffb957" d="m595.273 394.857-45.372 73.832-52.485-44.136 38.268-57.77 59.589 28.074z"/><path fill="#376f92" d="m551.19 409.194-6.741 10.969-7.798-6.557 5.686-8.583 8.853 4.171zM508.146 408.354c-1.939-2.36-3.71-4.823-5.422-7.322-1.723-2.493-3.346-5.048-4.95-7.614-1.571-2.586-3.122-5.185-4.573-7.845-1.462-2.654-2.864-5.345-4.096-8.14 1.94 2.359 3.713 4.821 5.425 7.321 1.722 2.494 3.345 5.048 4.946 7.616 1.57 2.587 3.12 5.186 4.572 7.847 1.461 2.654 2.864 5.344 4.098 8.137ZM495.713 367.324a67.375 67.375 0 0 1 7.135 1.624c2.346.635 4.654 1.38 6.955 2.148 2.289.803 4.57 1.63 6.812 2.566a66.56 66.56 0 0 1 6.63 3.098 66.615 66.615 0 0 1-7.136-1.621c-2.346-.636-4.654-1.382-6.954-2.152-2.288-.805-4.568-1.632-6.811-2.569a67.376 67.376 0 0 1-6.631-3.094ZM509.015 403.054a73.022 73.022 0 0 1-5.023-5.731c-1.593-1.968-3.09-4.004-4.57-6.053-1.448-2.07-2.877-4.156-4.21-6.309a72.149 72.149 0 0 1-3.753-6.633 72.183 72.183 0 0 1 5.026 5.73c1.592 1.968 3.09 4.004 4.567 6.055 1.447 2.072 2.875 4.157 4.208 6.31a72.998 72.998 0 0 1 3.755 6.631ZM493.11 363.89c3.308.34 6.572.872 9.821 1.471 3.251.587 6.477 1.289 9.697 2.012 3.211.76 6.417 1.544 9.597 2.442 3.183.885 6.35 1.84 9.471 2.988-3.309-.337-6.574-.868-9.822-1.468-3.251-.587-6.477-1.289-9.696-2.014-3.211-.762-6.417-1.547-9.597-2.445-3.182-.886-6.35-1.84-9.472-2.985ZM395.336 359.592a407.76 407.76 0 0 0 23.029-46.095h-14.48Z"/><path fill="#376f92" d="m404.712 306.072-.826 7.425h14.479a243.195 243.195 0 0 0 2.925-7.425Z"/><path fill="#376f92" d="M400.742 270.651c-3.867 6.033-6.729 14.076 2.668 25.213v10.208h17.88a59.347 59.347 0 0 0 5.396-16.964c1.534-9.83-.292-15.001.364-26.958a104 104 0 0 1 2.682-18.373c-14.482 9.864-16.022 8.662-15.43 6.752 0 0-9.693 14.09-13.56 20.122Z"/><path fill="#af2500" d="M429.666 252.864a9.652 9.652 0 0 0-2.049 6.01 32.121 32.121 0 0 0 .461 6.453 98.399 98.399 0 0 0 3.097 12.697c1.271 4.186 2.687 8.339 4.174 12.472 1.466 4.141 3.003 8.267 4.555 12.396l-.248-.107 2.384-.58-2.255.967-.154.066-.095-.172a128.67 128.67 0 0 1-10.26-24.472 68.196 68.196 0 0 1-2.7-13.083 27.52 27.52 0 0 1 .106-6.738 9.201 9.201 0 0 1 2.984-5.91Z"/><path fill="#376f92" d="M426.573 256.28s12.742-14.204 22.582-7.798c0 0-3.446-10.222-10.002-11.189l-9.422 6.485Z"/><path fill="#376f92" d="M469.488 257.813c-13.077-26.604-30.335-20.52-30.335-20.52 4.655 5.658 10.297 10.63 12.572 17.594 1.722 5.272 1.22 13.216 4.021 22.583 2.977 9.948 5.51 9.594 12.873 24.465 9.558 19.305 15.307 31.57 16.112 40.022.619 6.497 2.475 8.043 6.728 6.187 4.254-1.856 10.286 4.331 14.927-1.856 4.248-5.664 9.012-2.515 9.787-1.942-17.624-13.092-33.635-59.985-46.685-86.533ZM516.173 344.346c.037.028.075.059.112.086 0 0-.04-.033-.112-.086Z"/></svg>