<svg xmlns="http://www.w3.org/2000/svg" data-name="Layer 1" viewBox="0 0 3000 2000"><defs><linearGradient id="a" x1="1694.34" x2="1828.28" y1="1833.11" y2="1833.11" gradientUnits="userSpaceOnUse"><stop offset="0" stop-color="#fff"/><stop offset="1"/></linearGradient></defs><rect width="3000" height="2010.07" y="-5.04" fill="#ffe6af" opacity=".59"/><path fill="#fff" d="M2716.87,1235c0,255.12-79.17,491.72-214.27,686.64h-1985C382.53,1726.75,303.37,1490.15,303.37,1235,303.37,568.58,843.65,28.3,1510.12,28.3S2716.87,568.58,2716.87,1235Z"/><path fill="#ffcc5e" d="M2518.48,1935.24H531.77l-.5-.72C390.9,1732,316.7,1494.24,316.7,1246.93c0-163.13,31.95-321.39,95-470.36a1212.64,1212.64,0,0,1,643.08-643.08c149-63,307.24-95,470.38-95s321.39,31.95,470.37,95a1212.64,1212.64,0,0,1,643.08,643.08c63,149,95,307.23,95,470.36,0,247.31-74.2,485.07-214.56,687.59Zm-1985-3.35H2516.73c139.66-201.8,213.47-438.62,213.47-685,0-162.68-31.86-320.5-94.7-469.06a1209.38,1209.38,0,0,0-641.31-641.3c-148.56-62.84-306.38-94.7-469.06-94.7s-320.51,31.86-469.07,94.7a1209.38,1209.38,0,0,0-641.31,641.3c-62.84,148.56-94.7,306.38-94.7,469.06C320.05,1493.27,393.86,1730.09,533.52,1931.89Z"/><circle cx="2183.69" cy="1191.34" r="179.86" fill="#ff8600" opacity=".18"/><circle cx="955.45" cy="1590.24" r="114.11" fill="#ffe6af" opacity=".3"/><path fill="#846926" d="M2312.69,1519.94s5.66-193.84,32.55-324,65.08-152.23,94.79-173,68.43-61.84,70.3-108.53c0,0,24.5,21.23,8.94,94.8s-97.63,98.1-114.61,122.62-34.92,40.13-58.95,140.08-25.47,248.07-25.47,248.07Z"/><path fill="#846926" d="M2320.24,1519.94s0-136.77,44.33-228.26S2482.48,1153,2482.48,1153s-69.8,95.27-92.44,162.24-58,174.5-56.35,200.91Z"/><path fill="#846926" d="M2341.94,1516.17s27.35-129.23,59.42-191.48,79.23-23.58,127.34-84c0,0-6.6,54.71-46.22,85.84s-71.69,24.52-97.15,88.66-34,100.93-34,100.93Z"/><path fill="#846926" d="M2359.54 1516.17s28.93-113.5 95-148.72c0 0-47.79 47.79-70.43 144.63zM2391.61 1512.08s25.16-63.51 66.66-78.6c0 0-34 32.7-42.13 82.69S2391.61 1512.08 2391.61 1512.08zM2312.69 1519.94s-17.92-142.43-19.8-233 11.81-189.6 40.8-221.67c0 0-25.71 74.52-21 185.83s24.08 255.62 21 265.05S2312.69 1519.94 2312.69 1519.94zM2303.26 1516.17s-18.86-148.09-22.64-197.14 16-89.61-7.54-147.15-33-75.46-23.58-113.19c0 0-57.54 59.43-43.39 149s43.39 97.15 51.88 128.75 28.29 179.69 28.29 179.69z"/><path fill="#846926" d="M2286.28,1516.17s-8.84-101.87-32.72-142.43-55.7-58.21-49.69-101.87c0,0-27,33-6.25,71.68s45.86,41.51,55.94,86.78,14.8,85.84,14.8,85.84Z"/><path fill="#846926" d="M2258.93 1516.17s-4.72-69.8-50.94-128.28c0 0 33.66 88.66 30 128.28S2258.93 1516.17 2258.93 1516.17zM2225.91 1516.17s-24.52-54.08-47.16-82.69c0 0 22.64 47.79 29.24 82.69S2225.91 1516.17 2225.91 1516.17z"/><path fill="#a50f33" d="M2516.68,1639.12c-2.8-24.93-8.75-48.06-18-67.91q-1.3-2.84-2.72-5.58-3.1-6-6.66-11.64a120.07,120.07,0,0,0-18.08-22.31,99.87,99.87,0,0,0-56.52-27.41v-1.18H2165.3v1.18a99.93,99.93,0,0,0-56.52,27.41,119.62,119.62,0,0,0-18.07,22.31c-2.38,3.72-4.59,7.61-6.67,11.64q-1.41,2.74-2.71,5.58c-9.25,19.85-15.2,43-18,67.91-4,35.9-1.56,75.54,7,114.52.39,1.75.77,3.49,1.19,5.23q2.84,12.17,6.47,24.19a371.61,371.61,0,0,0,19,49.76l14,31.63,9.9,22.31,5.16,11.64,1.34,3c.39.87.79,1.72,1.23,2.56a48.75,48.75,0,0,0,36.7,25.94v.46h249.41v-.46a48.76,48.76,0,0,0,36.71-25.94c.43-.84.84-1.69,1.22-2.56l1.34-3,5.16-11.64,9.9-22.31,14-31.63a371.61,371.61,0,0,0,19-49.76q3.64-12,6.46-24.19c.42-1.74.81-3.48,1.19-5.23C2518.24,1714.66,2520.72,1675,2516.68,1639.12Z"/><path fill="#fff" d="M2498.69,1571.21H2165.3v-5.58H2496Q2497.38,1568.38,2498.69,1571.21Z" opacity=".52"/><g opacity=".46"><path fill="#f83317" d="M2489.31,1554h-324v-22.31h305.93A120.07,120.07,0,0,1,2489.31,1554Z"/><path fill="#ea1928" d="M2509.69,1753.64H2165.3V1639.12h351.38C2520.72,1675,2518.24,1714.66,2509.69,1753.64Z"/><polygon fill="#f83317" points="2469.04 1864.45 2459.14 1886.76 2165.3 1886.76 2165.3 1864.45 2469.04 1864.45"/></g><path fill="#fff" d="M2454,1898.4l-1.34,3c-.38.87-.79,1.72-1.22,2.56H2165.3v-5.58Z" opacity=".52"/><g opacity=".33"><circle cx="2207.99" cy="1771.37" r="12.62" fill="#fff"/><circle cx="2250.68" cy="1771.37" r="12.62" fill="#fff"/><circle cx="2293.38" cy="1771.37" r="12.62" fill="#fff"/><circle cx="2336.07" cy="1771.37" r="12.62" fill="#fff"/><circle cx="2378.76" cy="1771.37" r="12.62" fill="#fff"/><circle cx="2421.45" cy="1771.37" r="12.62" fill="#fff"/><circle cx="2464.15" cy="1771.37" r="12.62" fill="#fff"/><path fill="#fff" d="M2508.5,1758.87q-2.84,12.17-6.46,24.19a12.63,12.63,0,0,1,4.81-24.31A11,11,0,0,1,2508.5,1758.87Z"/></g><path fill="#0e010f" d="M2322.61 1503.15c-.19-2.61-18.93-261.5-9.28-330.24l1.65.23c-7.71 55 2.8 232.26 7.37 301.67a1081.53 1081.53 0 016.78-112.63c8.17-71.16 27.79-169 74.86-230.89l1.34 1c-46.84 61.61-66.39 159.11-74.53 230a1037.8 1037.8 0 00-6.52 140.7zM2336.89 1503.23l-1.64-.29c.31-1.82 32.55-183.85 108.44-293.8l1.38.95C2369.39 1319.74 2337.21 1501.41 2336.89 1503.23zM2285.45 1503.16c-.09-1.06-9.1-106.05-48-146.23l1.2-1.16C2278 1396.38 2287 1502 2287.12 1503zM2252.76 1503.32c-.26-.9-26.88-91-45.43-114.92l1.32-1c18.74 24.15 44.63 111.76 45.72 115.48zM2373 1503.93l-.76-.47c-.85-1.67 25.51-68.48 55.74-109.94l1.35 1c-30.22 41.45-55.18 105.45-55.52 108.55l-.71-.08-.1.09z"/><rect width="833.81" height="1749.33" x="1355.33" y="180.89" fill="#3f0009" rx="37.5"/><path fill="#fff" d="M2127,207.31H1936.86v9.63a46.79,46.79,0,0,1-46.79,46.79h-263a46.79,46.79,0,0,1-46.79-46.79v-9.63H1417.51a36,36,0,0,0-36,36V1706.62a36,36,0,0,0,36,36H2127a36,36,0,0,0,36-36V243.35A36,36,0,0,0,2127,207.31Z"/><rect width="613.4" height="639.01" x="1466.95" y="517.7" fill="#ff8600" opacity=".88"/><path fill="#0e010f" d="M1472.37 261.6h-48a1.77 1.77 0 110-3.53h48a1.77 1.77 0 110 3.53zM1472.37 276.54h-48a1.77 1.77 0 110-3.54h48a1.77 1.77 0 010 3.54zM1472.37 291.47h-48a1.77 1.77 0 110-3.54h48a1.77 1.77 0 010 3.54zM2110.85 307.82h-39.19a8.34 8.34 0 01-8.33-8.33V270.07a8.35 8.35 0 018.33-8.34h39.19a8.35 8.35 0 018.33 8.34v29.42A8.34 8.34 0 012110.85 307.82zm-39.19-42.74a5 5 0 00-5 5v29.42a5 5 0 005 5h39.19a5 5 0 005-5V270.07a5 5 0 00-5-5z"/><path fill="#0e010f" d="M2101.18,271.06a1.68,1.68,0,0,1-1.67-1.68v-9.91c0-6.38-3.7-11.57-8.24-11.57h-2c-4.55,0-8.25,5.19-8.25,11.57v9.91a1.68,1.68,0,1,1-3.35,0v-9.91c0-8.23,5.21-14.92,11.6-14.92h2c6.39,0,11.59,6.69,11.59,14.92v9.91A1.68,1.68,0,0,1,2101.18,271.06Z"/><circle cx="2115.39" cy="263.38" r="16.57" fill="#ff8600"/><path d="M2114.55,255.61h-2.88l1.38-2.36h4v16.68h-2.52Z"/><rect width="396.17" height="19.81" x="1469.91" y="1209.61" fill="#e8e8e8"/><rect width="396.17" height="19.81" x="1569.79" y="398.97" fill="#e8e8e8"/><rect width="198.08" height="54.7" x="1469.91" y="1261.96" fill="#e8e8e8"/><rect width="516.38" height="3.35" x="1516.28" y="449.36" fill="#e8e8e8"/><polygon fill="#0e010f" points="1483.25 1359.64 1489.59 1379.16 1510.12 1379.16 1493.51 1391.22 1499.86 1410.74 1483.25 1398.68 1466.64 1410.74 1472.99 1391.22 1456.38 1379.16 1476.91 1379.16 1483.25 1359.64"/><polygon fill="#0e010f" points="1548.4 1359.64 1554.74 1379.16 1575.27 1379.16 1558.66 1391.22 1565 1410.74 1548.4 1398.68 1531.79 1410.74 1538.13 1391.22 1521.53 1379.16 1542.06 1379.16 1548.4 1359.64"/><polygon fill="#0e010f" points="1613.55 1359.64 1619.89 1379.16 1640.42 1379.16 1623.81 1391.22 1630.15 1410.74 1613.55 1398.68 1596.94 1410.74 1603.28 1391.22 1586.68 1379.16 1607.2 1379.16 1613.55 1359.64"/><polygon fill="#0e010f" points="1678.7 1359.64 1685.04 1379.16 1705.57 1379.16 1688.96 1391.22 1695.3 1410.74 1678.7 1398.68 1662.09 1410.74 1668.43 1391.22 1651.83 1379.16 1672.35 1379.16 1678.7 1359.64"/><path fill="#0e010f" d="M1762,1412.94l-18.2-13.23-18.19,13.23,6.95-21.4-18.2-13.22h22.49l6.95-21.39,7,21.39h22.49l-18.2,13.22ZM1719.55,1380l15,10.9-5.74,17.65,15-10.91,15,10.91-5.74-17.65,15-10.9h-18.56l-5.74-17.65-5.73,17.65Z"/><rect width="665.89" height="117.49" x="1430.04" y="1521.63" fill="#e8e8e8" rx="35.07"/><path fill="#ffdda1" d="M1925.3,806.06c-1.63-26.06,8.14-24.43,8.14-24.43-44-96.92,10.59-158,0-164.11s-84.7-37.87-84.7-37.87c-19.27,14.27-56.79,12.28-65.76,11.57v-.17l-1,.09-1-.09v.17c-9,.71-46.49,2.7-65.76-11.57,0,0-74.12,31.76-84.71,37.87s44,67.19,0,164.11c0,0,9.78-1.63,8.15,24.43s-9.54,294.83-9.54,294.83h305.69S1926.93,832.12,1925.3,806.06Z"/><rect width="1.68" height="1.68" x="1632.18" y="1069.1" fill="#1a1617"/><path fill="#1a1617" d="M1647.26 1070.78h-3.35v-1.68h3.35zm-6.7 0h-3.35v-1.68h3.35zM1928.75 1070.78h-3.35v-1.68h3.35zm-6.7 0h-3.36v-1.68h3.36zm-6.71 0H1912v-1.68h3.35zm-6.7 0h-3.35v-1.68h3.35zm-6.7 0h-3.35v-1.68h3.35zm-6.7 0h-3.35v-1.68h3.35zm-6.7 0h-3.36v-1.68h3.36zm-6.71 0h-3.35v-1.68h3.35zm-6.7 0h-3.35v-1.68h3.35zm-6.7 0h-3.35v-1.68h3.35zm-6.7 0h-3.35v-1.68h3.35zm-6.71 0h-3.35v-1.68H1855zm-6.7 0H1845v-1.68h3.35zm-6.7 0h-3.35v-1.68h3.35zm-6.7 0h-3.35v-1.68h3.35zm-6.7 0h-3.35v-1.68h3.35zm-6.7 0h-3.36v-1.68h3.36zm-6.71 0h-3.35v-1.68h3.35zm-6.7 0h-3.35v-1.68h3.35zm-6.7 0h-3.35v-1.68h3.35zm-6.7 0h-3.35v-1.68h3.35zm-6.71 0h-3.35v-1.68H1788zm-6.7 0H1778v-1.68h3.35zm-6.7 0h-3.35v-1.68h3.35zm-6.7 0h-3.35v-1.68h3.35zm-6.7 0h-3.35v-1.68h3.35zm-6.71 0h-3.35v-1.68h3.35zm-6.7 0h-3.35v-1.68h3.35zm-6.7 0h-3.35v-1.68h3.35zm-6.7 0H1731v-1.68h3.35zm-6.7 0h-3.35v-1.68h3.35zm-6.71 0h-3.35v-1.68H1721zm-6.7 0h-3.35v-1.68h3.35zm-6.7 0h-3.35v-1.68h3.35zm-6.7 0h-3.35v-1.68h3.35zm-6.7 0h-3.35v-1.68h3.35zm-6.71 0h-3.35v-1.68h3.35zm-6.7 0h-3.35v-1.68h3.35zm-6.7 0h-3.35v-1.68h3.35zm-6.7 0H1664v-1.68h3.35zm-6.7 0h-3.35v-1.68h3.35zm-6.71 0h-3.35v-1.68H1654z"/><rect width="1.68" height="1.68" x="1932.1" y="1069.1" fill="#1a1617"/><path fill="#1a1617" d="M1644.84 619.38c-.47-1-.73-1.46-.74-1.46l1.48-.8s.28.52.77 1.52zM1650 631.46q-.62-1.62-1.2-3.06l1.56-.63c.39 1 .79 2 1.21 3.1zm-2.45-6.11c-.48-1.12-.92-2.13-1.32-3l1.53-.69c.4.9.85 1.91 1.33 3.05zM1640.35 784.5l-1.44-.86c.57-.95 1.13-1.9 1.67-2.84l1.45.83C1641.48 782.59 1640.92 783.54 1640.35 784.5zm3.31-5.76l-1.47-.81c.53-1 1-1.93 1.55-2.9l1.49.78C1644.72 776.78 1644.19 777.76 1643.66 778.74zm3.08-5.89l-1.5-.75c.49-1 1-2 1.44-3l1.51.72C1647.72 770.86 1647.24 771.85 1646.74 772.85zm2.85-6l-1.53-.69c.45-1 .89-2 1.32-3l1.54.66C1650.49 764.81 1650 765.83 1649.59 766.85zm2.6-6.12l-1.55-.62c.41-1 .81-2.05 1.19-3.07l1.57.59C1653 758.67 1652.61 759.7 1652.19 760.73zm2.35-6.22L1653 754c.36-1 .72-2.07 1.07-3.11l1.59.53C1655.28 752.42 1654.92 753.47 1654.54 754.51zm2.1-6.3l-1.6-.5c.33-1.05.64-2.1 1-3.15l1.6.46C1657.29 746.08 1657 747.14 1656.64 748.21zm1.84-6.39l-1.62-.43c.28-1.06.56-2.13.82-3.19l1.62.4C1659 739.67 1658.77 740.74 1658.48 741.82zm1.58-6.46l-1.64-.36c.24-1.08.47-2.15.69-3.22l1.64.33C1660.53 733.19 1660.3 734.28 1660.06 735.36zm1.32-6.51l-1.65-.3c.19-1.08.38-2.16.55-3.24l1.65.26C1661.76 726.66 1661.57 727.75 1661.38 728.85zm1-6.56l-1.66-.23c.15-1.1.29-2.18.42-3.27l1.66.2C1662.72 720.09 1662.58 721.18 1662.43 722.29zm.79-6.6l-1.67-.17c.11-1.09.21-2.19.3-3.27l1.66.13C1663.43 713.48 1663.33 714.58 1663.22 715.69zm.53-6.62l-1.67-.11c.06-1.1.12-2.19.16-3.28l1.68.07C1663.87 706.85 1663.81 708 1663.75 709.07zm.27-6.64l-1.67 0c0-1.1 0-2.2 0-3.29h1.68C1664.06 700.2 1664.05 701.31 1664 702.43zm-1.65-6.62c0-1.11 0-2.2-.08-3.29l1.68-.06c0 1.1.06 2.21.08 3.32zm-.21-6.58c-.06-1.1-.13-2.2-.21-3.29l1.68-.11c.07 1.09.14 2.2.2 3.31zm-.46-6.57c-.1-1.1-.21-2.19-.32-3.28l1.66-.17c.12 1.09.23 2.19.32 3.31zm-.69-6.54c-.14-1.1-.29-2.19-.44-3.27l1.66-.23c.15 1.08.3 2.18.44 3.29zm-.93-6.53q-.25-1.64-.54-3.24l1.65-.29c.19 1.07.37 2.17.55 3.27zm-1.14-6.48c-.21-1.09-.43-2.17-.65-3.23l1.64-.34c.22 1.07.44 2.15.66 3.25zm-1.36-6.44c-.25-1.09-.5-2.16-.76-3.21l1.63-.4c.26 1.06.51 2.14.76 3.23zm-1.58-6.4c-.28-1.08-.57-2.14-.86-3.18l1.61-.45c.29 1 .58 2.11.87 3.2zm-1.78-6.34c-.33-1.08-.65-2.12-1-3.14l1.6-.51c.33 1 .66 2.08 1 3.17zm-2-6.27c-.36-1.08-.72-2.11-1.08-3.11l1.58-.57c.36 1 .72 2.06 1.09 3.14z"/><polygon fill="#1a1617" points="1637.7 788.78 1636.29 787.88 1637.18 786.47 1638.6 787.36 1637.7 788.78"/><path fill="url(#a)" d="M1761.31,1900.08a67,67,0,1,1,67-67A67,67,0,0,1,1761.31,1900.08Zm0-130.59a63.62,63.62,0,1,0,63.62,63.62A63.69,63.69,0,0,0,1761.31,1769.49Z" opacity=".31"/><path fill="#ff9685" d="M1660.7,690.77l-6.6,9.48s-10.74,3.23-8.57-9.43,14.55-2.83,14.55-2.83Z"/><path fill="#ffac99" d="M1645.53,672s-3.22,16,0,18.87,7.63,4.4,14.55-2.83-1.42-25-1.42-25Z"/><path fill="#f9b7a5" d="M1677.05,636.58s14.45-2.76,7.23,19.37S1662,693.6,1659.6,694.33s-9.11-5.27-5.5-15.48a104.5,104.5,0,0,0,4.56-15.86l-9-24.48Z"/><path fill="#600716" d="M861.77,948.64s-6.3,18.56,6.92,37.42,18.86,24.21,15.09,49.37c-2.53,16.83,3,24.5,6.88,27.75a12.55,12.55,0,0,0,3.49,2.11l1.15-1.45,123.35-154.19,39.62-274.48L1239.06,538a27.74,27.74,0,0,0,6.36-3.75s0,0,0,0c5.73-4.27,14.24-12.86,21.16-29.14a.23.23,0,0,1,0-.07,135.14,135.14,0,0,0,8.26-28.63c9.43-52.19-15.1-98.73-22.63-110.69s-18.25-54.7-61-58.47-66,9.43-96.84,60.37S1042.24,460,984.38,479.53,874.35,494,858,556.88s-1.25,92.43-33.31,115.7S771.21,695.84,763,719.11s5,39,18.22,50.94,19.5,38.36-.62,73c0,0-39.37,37.13-12,87.74s39.17,38.41,46.25,86S893.36,1130.27,956,1020s-94.24-71.32-94.24-71.32"/><path fill="#470f20" d="M1252.28,365.7s27.66,19.5,39,88.68-30.18,112.4-33,115.7c0,0,16.35-33,16-55.65,0,0-9.11,24.52-22,28.77s-6.81-9-6.81-9,26.5-20.94,26.71-61.64c0,0,1.21-34.08-4.48-46.52S1252,396.84,1252,392.43,1246.62,364.76,1252.28,365.7Z"/><path fill="#0e010f" d="M1266.65,505a.23.23,0,0,0,0,.07c-6.92,16.28-15.43,24.87-21.16,29.14,0,0,0,0,0,0a27.74,27.74,0,0,1-6.36,3.75l-180.79,97.15-39.62,274.48L895.3,1063.84l-4.64-.66c-3.92-3.25-9.41-10.92-6.88-27.75,3.77-25.16-1.89-30.51-15.09-49.37s-6.92-37.42-6.92-37.42c23.26-34.59,35.84-86.78,20.12-130.8s-14.46-92.43,26.41-124.51,32.7-45.9,42.13-96.84,47.79-82.37,110.67-91.4,90.55-33.57,90.55-33.57l17,6.75s13.2-18.86,21.56-63.94,24.34-46.11,36.3-44.22,14.77,23.58,14.77,23.58C1290.5,420,1267.38,502.47,1266.65,505Z"/><path fill="#ffbfae" d="M1211.4,648.89l-142.13,23.27L963,645.76s32.7-69.18,45.9-88.68,37.73-36.15,81.76-24.36,64.13-20.92,64.77-52.36c0,0-1.89-6.43-3.79-9.26,0,0,17.93-8,33-45.76s44.34-44.33,56.6-32.06c0,0,29.87,68.86-14.15,106.58a47.91,47.91,0,0,0,5.84,18.56h0a35.49,35.49,0,0,0,18.19,16c22.48,8.79,49.53.62,60.84,10.69s25.78,27.67,49.68,70.43S1211.4,648.89,1211.4,648.89Z"/><path fill="#ff9259" d="M1233,518.84c-52.36,9-69-27.87-69.46-28.91,32.09,31.1,63.62,10.35,63.62,10.35A47.91,47.91,0,0,0,1233,518.84Z"/><path fill="#1e0020" d="M1207,350.62c-10.19,1.55-19.27,7-26.74,13.79a92,92,0,0,0-18.36,24l-1.83,3.33-1.6,3.45c-1,2.32-2.15,4.56-3.19,6.94l-3.17,7.05-3.47,6.93a152.54,152.54,0,0,1-17.1,25.88,115.28,115.28,0,0,1-23,20.88l-3.23,2.18-1.61,1.09-1.69,1-6.78,3.82c-2.3,1.19-4.68,2.22-7,3.32l-3.53,1.62-3.63,1.35c-19.32,7.42-39.77,11.1-60.19,12.7,20.28-2.9,40.38-7.42,59.21-15.12l3.54-1.43,3.42-1.67c2.27-1.13,4.59-2.17,6.82-3.36l6.56-3.84,1.64-.95,1.55-1.09,3.11-2.18A113.34,113.34,0,0,0,1129,439.86a151.12,151.12,0,0,0,16.87-25.22l3.53-6.76,3.23-6.92c1.06-2.3,2.23-4.65,3.35-7l1.72-3.48,2-3.36a90,90,0,0,1,19.56-24,66.5,66.5,0,0,1,13-8.41A41.42,41.42,0,0,1,1207,350.62Z"/><path fill="#4d22d3" d="M1276.9,427.67a24.7,24.7,0,0,1-19.82,24.22,25.42,25.42,0,0,1-4.89.48c-.53,0-1,0-1.57-.05a25.65,25.65,0,0,1-3.65-.5,24.66,24.66,0,0,1-17-13.3,24.07,24.07,0,0,1-2.33-7.94h-8.78a28.64,28.64,0,0,1-28.44,25.48c-.28,0-.58,0-.87,0a24.18,24.18,0,0,1-3.73-.37,28.12,28.12,0,0,1-12.94-5.63,28.56,28.56,0,0,1-11.07-22.61,28.94,28.94,0,0,1,.35-4.49h114.28A24.63,24.63,0,0,1,1276.9,427.67Z"/><path fill="#ff9259" d="M1225.7 430.58c.6 1.77 1.09 3.56 1.65 5.34l1.49 5.38c1 3.58 1.89 7.19 2.83 10.78.44 1.8.9 3.6 1.39 5.37.12.44.24.9.37 1.31l.2.62a2.52 2.52 0 01.18 1 2.12 2.12 0 01-1.15 1.65 5.53 5.53 0 01-1.51.52 15.88 15.88 0 01-5.76-.16 15.15 15.15 0 01-2.72-.88 4.13 4.13 0 01-2.15-1.79 4.29 4.29 0 002.31 1.37 13.59 13.59 0 002.68.49 15.1 15.1 0 005.34-.29c.81-.2 1.57-.72 1.5-1a1.29 1.29 0 00-.1-.35l-.26-.7c-.18-.46-.3-.9-.46-1.35-.54-1.8-1-3.6-1.49-5.41-.89-3.62-1.74-7.24-2.44-10.9S1226.19 434.28 1225.7 430.58zM1233 477.17a25.68 25.68 0 01-6.73 1.89 23.49 23.49 0 01-7.1-.15A19.53 19.53 0 011207 472c2.24.77 4.32 1.54 6.41 2.16a58 58 0 006.3 1.47c2.12.37 4.26.66 6.46.85l3.33.26A18.14 18.14 0 011233 477.17z"/><path fill="#fff" d="M1279.94,770.68s20.12,14.62,50.62-6-5.34-28.61-5.34-28.61Z"/><path fill="#1a1617" d="M1782 677.93c-24.81 0-43.39-7.53-55.22-22.39-22.88-28.74-12.45-75.61-12.34-76.08l1.63.38c-.1.46-10.35 46.56 12 74.66 11.5 14.44 29.64 21.76 53.91 21.76s42.42-7.32 53.92-21.76c22.37-28.1 12.12-74.2 12-74.66l1.63-.38c.11.47 10.54 47.34-12.34 76.08C1825.39 670.4 1806.81 677.93 1782 677.93zM1707.59 584.94l-1.64-.33c.21-1.08.35-1.66.35-1.66l1.63.38S1707.8 583.9 1707.59 584.94zM1705.71 598.37l-1.67-.15c.1-1.2.22-2.34.34-3.42l1.67.19C1705.93 596.06 1705.81 597.19 1705.71 598.37zm.76-6.75l-1.65-.23c.17-1.26.35-2.39.51-3.4l1.66.28C1706.82 589.26 1706.65 590.38 1706.47 591.62zM1783.6 689.85l0-1.67c1.15 0 2.28 0 3.39-.08l.06 1.67C1785.91 689.81 1784.76 689.84 1783.6 689.85zm-3.43 0c-1.17 0-2.31 0-3.44-.09l.07-1.67q1.67.06 3.39.09zm10.29-.25l-.1-1.68c1.14-.07 2.27-.16 3.37-.26l.16 1.67C1792.77 689.43 1791.62 689.52 1790.46 689.6zm-17.16 0c-1.16-.07-2.3-.17-3.43-.28l.16-1.66c1.11.1 2.24.2 3.38.27zm24-.63l-.21-1.66c1.14-.14 2.25-.3 3.35-.47l.26 1.65C1799.6 688.65 1798.46 688.81 1797.31 689zm-30.85 0c-1.16-.14-2.29-.31-3.41-.49l.27-1.65c1.1.18 2.21.34 3.35.48zm37.64-1l-.32-1.64c1.12-.22 2.22-.46 3.3-.71l.39 1.63C1806.37 687.4 1805.25 687.65 1804.1 687.87zm-44.44 0c-1.14-.23-2.26-.48-3.36-.74l.39-1.63q1.62.39 3.3.72zm51.14-1.54l-.44-1.61c1.1-.31 2.17-.63 3.23-1l.51 1.6Q1812.5 685.83 1810.8 686.29zm-57.83-.06c-1.13-.32-2.23-.65-3.3-1l.52-1.59c1 .34 2.13.67 3.23 1zm64.39-2.07l-.59-1.57c1.07-.4 2.11-.82 3.13-1.26l.66 1.54C1819.52 683.32 1818.45 683.75 1817.36 684.16zm-70.95-.08c-1.09-.42-2.15-.85-3.19-1.3l.67-1.54c1 .45 2.06.87 3.12 1.27zm77.28-2.66l-.74-1.5c1-.5 2-1 3-1.57l.82 1.46C1825.76 680.37 1824.74 680.91 1823.69 681.42zm-83.6-.1c-1-.52-2.06-1.06-3-1.62l.82-1.45c1 .54 2 1.06 3 1.57zm89.63-3.27l-.89-1.42c1-.61 1.88-1.24 2.78-1.88l1 1.36C1831.66 676.78 1830.71 677.42 1829.72 678.05zm-95.64-.13c-1-.63-1.94-1.27-2.86-1.94l1-1.36c.9.65 1.82 1.28 2.78 1.89zm101.26-3.9l-1-1.31c.88-.71 1.73-1.44 2.55-2.18l1.13 1.24C1837.12 672.53 1836.25 673.29 1835.34 674zm-106.86-.15c-.91-.73-1.78-1.48-2.62-2.26l1.13-1.23c.82.75 1.67 1.48 2.54 2.2zm112-4.51l-1.19-1.17c.79-.81 1.55-1.63 2.28-2.47l1.26 1.1C1842.05 667.68 1841.27 668.53 1840.45 669.36zm-117.07-.16q-1.22-1.25-2.34-2.55l1.27-1.1c.73.85 1.48 1.67 2.27 2.49zM1845 664.14l-1.32-1c.69-.9 1.35-1.8 2-2.72l1.38 1Q1846.06 662.76 1845 664.14zM1718.86 664c-.71-.92-1.38-1.86-2-2.81l1.38-.94c.63.92 1.29 1.83 2 2.72zm130.05-5.53l-1.43-.87c.59-1 1.15-1.94 1.68-2.92l1.47.79C1850.08 656.45 1849.51 657.45 1848.91 658.44zm-134-.19q-.9-1.49-1.71-3l1.48-.79c.53 1 1.08 2 1.67 2.92zm137.23-5.89l-1.51-.72c.48-1 .94-2 1.38-3.08l1.54.65C1853.16 650.26 1852.69 651.32 1852.19 652.36zm-140.49-.2c-.49-1-1-2.1-1.4-3.16l1.55-.64c.43 1 .88 2.06 1.37 3.08zM1854.86 646l-1.57-.58c.39-1.06.75-2.12 1.09-3.19l1.6.5C1855.63 643.82 1855.26 644.91 1854.86 646zm-145.81-.21c-.39-1.08-.76-2.17-1.1-3.27l1.59-.5c.34 1.07.7 2.14 1.09 3.2zm147.9-6.37l-1.61-.44c.29-1.09.57-2.19.82-3.28l1.64.38C1857.54 637.18 1857.26 638.3 1857 639.41zm-150-.21c-.3-1.11-.58-2.23-.84-3.35l1.63-.37c.25 1.09.53 2.19.82 3.28zm151.54-6.5l-1.65-.32c.22-1.12.42-2.23.59-3.34l1.66.26C1858.94 630.43 1858.74 631.57 1858.52 632.7zm-153.09-.22c-.22-1.13-.41-2.26-.59-3.39l1.65-.26c.18 1.11.37 2.22.59 3.34zm154.17-6.59l-1.66-.2c.14-1.14.27-2.26.37-3.38l1.67.16C1859.87 623.6 1859.75 624.75 1859.6 625.89zm-155.24-.21c-.14-1.15-.26-2.29-.37-3.43l1.67-.15c.1 1.11.22 2.24.36 3.37zM1860.25 619l-1.67-.11c.08-1.14.13-2.27.17-3.39l1.68.06C1860.39 616.74 1860.33 617.88 1860.25 619zm-156.53-.22c-.07-1.16-.13-2.3-.17-3.43l1.68-.07c0 1.12.09 2.25.16 3.4zm156.79-6.66h-1.67v-1.4c0-.67 0-1.34 0-2l1.67 0c0 .66 0 1.34 0 2zm-157-.22v-1.19c0-.76 0-1.51 0-2.24l1.67 0c0 .73 0 1.47 0 2.22v1.18zm155.27-6.58c0-1.16-.11-2.3-.18-3.39l1.67-.11c.07 1.11.13 2.26.18 3.43zm-153.48-.22l-1.67-.07c.05-1.17.11-2.32.18-3.43l1.67.11Q1705.33 603.4 1705.26 605.14zm153-6.56c-.1-1.18-.22-2.31-.34-3.38l1.67-.18c.12 1.08.23 2.22.34 3.41zm-.76-6.75c-.17-1.23-.34-2.36-.5-3.35l1.65-.27c.17 1 .34 2.14.51 3.4zM1856.4 584.94c-.21-1-.34-1.6-.34-1.61l1.63-.38s.14.58.35 1.66z"/><rect width="138.5" height="1.68" x="1712.75" y="603.71" fill="#1a1617"/><path fill="#ff9259" d="M1208.73,467.88a15.17,15.17,0,0,1-1.83,3.72,37.58,37.58,0,0,1-2.42,3.28,4.38,4.38,0,0,1,.11-2.22,7.72,7.72,0,0,1,4.14-4.78Z"/><path fill="#ffbfae" d="M1698.75,636.75c-30.19,9.11-42.45,9.73-44.64,9.73s18.86.95,28,1.27.64,17.61-18.23,22.63-20.75,13.32-27.35,24-32.39,27-51.89,8.43l-4.09-4.09S1484.09,789.55,1451.19,810s-75.75,24-113.08-19.5c-3.86-4.5-7.26-8.57-10.27-12.24-26-31.88-21.8-34.29-21.8-34.29s68.23-69.16,68.85-70.1,51.89-4.74,51.89-4.74l26.45,3.32,1.21.15,3.57,11.7.52,1.68h5s87.4-18.41,116-24.69,39.94-29.25,58.48-38.06c0,0,80.5-8,88.68-11.07C1726.74,612.14,1728.93,627.62,1698.75,636.75Z"/><path fill="#ff9259" d="M1462.39,686l-15,10.74s-3.13-3.5-8.79,3.26-19.5,30.37-26.1,27.22-13.22-6.65-20.14.3-27.17,24.54-34.89,19.2c-6.58-4.54-11.07,18-29.66,31.56a1.56,1.56,0,0,1-.19.13c-27.65-33.57-23.28-36.09-23.28-36.09s68.22-69.17,68.84-70.11,51.9-4.74,51.9-4.74l27.65,3.47.47,1.53,3.62,11.85H1458l.52,1.68Z" opacity=".67"/><path fill="#ffa18f" d="M1267.37,761.25s1.1,59.74,9.66,70.11-167.82,30.19-184.8,20.76,3.78-76.41,14.15-78.29S1255.73,776,1267.37,761.25Z"/><path fill="#fff" d="M1375.53 730.43s-19.5-9.43-23.59-15.71 18.24-23.27 19.81-23.9 13.21 4.4 11 16A135.38 135.38 0 011375.53 730.43zM1415.14 716.71s-21.69-15.51-23.89-20.23 15.41-21.4 18.86-23.9 18.87 2.83 18.24 10.06S1415.14 716.71 1415.14 716.71zM1455.39 686l-3.15 4.86s-11.94-6.29-14.15-10.69 6.92-8.5 10.07-8.18S1455.7 682 1455.39 686zM959.24 766.28s7.07-34 9-40.09 21.93 14.3 21.93 14.3.24 17.14-5.89 20.76S959.24 766.28 959.24 766.28z"/><path fill="#ffb537" d="M1463.57,686l-11.33,4.86s1.9-16.35-3.76-11.33c-3.61,3.22-13.56,19.22-22,29.28l0,0c-4.79,5.74-9.08,9.55-11.36,7.9-6.28-4.5,15.09-29.66,9.43-37.84h0a1.47,1.47,0,0,0-.84-.64l0,0c-5.14-1.24-20.94,25.31-33.54,41.18a80.65,80.65,0,0,1-6.36,7.25,28.31,28.31,0,0,1-2.77,2.43c-2.24,1.67-4.12,2.29-5.47,1.37-9.43-6.28,8.81-17.6,4.4-30.18-.63-1.81-1.64-2.46-2.91-2.26-7.54,1.22-24.14,32.86-24.14,32.86s-17.61,23.49-35.83,30.4c-4.51,1.71-8.71,3-12.5,4.07a113.17,113.17,0,0,1-13,2.78c-3.8.59-6,.69-6,.69s1.1,4.51,2.46,10c1.94,7.84,4.44,17.69,5.14,19.54,1.19,3.13-40.32,14.45-63,15.71S1091.55,801,1091.55,801l-8.44-21.52s-3.63-.39-8.83-1.11c-12.14-1.64-32.81-5-35.34-9.24-3.62-6-14.32-3.47-30.35.92a120.2,120.2,0,0,1-14.53,3h0A108,108,0,0,1,981,774.27a56.83,56.83,0,0,1-10.54-.57c-6-1-10.33-3.23-11.22-7.42-2.53-11.94,23.89-4.41,27.66-14.46l.1-.3a9.75,9.75,0,0,0,.43-1.49.12.12,0,0,0,0-.08c1.32-6.4-4.69-8.63-16.17-6.18a89.18,89.18,0,0,0-12.21,3.65C938.49,755,896.34,773.83,888.8,733c0,0,29.3-29.29,42.8-51.08.91-1.45,1.73-2.88,2.48-4.25,1-1.86,2-3.69,3.1-5.45,11.36-19.09,24.59-32.19,29.1-32.83s55.34-10,92.48,14.31a76,76,0,0,1,7.73,5.73l1.26.92,3.32,2.48,1.35,1s.66-1.17,2-3.11c4.07-5.68,14.44-17.84,33.18-25.82A171.25,171.25,0,0,1,1131.7,627c3.79-1,7.71-1.88,11.71-2.7a324.4,324.4,0,0,1,38-5.51c3.43-.3,6.83-.53,10.17-.68,5.37-.27,10.58-.37,15.46-.27,7.1.15,15.31.62,23.9,1.39,3.92.35,7.92.75,11.94,1.24,25.28,3,50.79,8.37,58.48,15.61,0,0,.64-.6,1.83-1.61,7.69-6.5,38.31-30.13,66.09-19.76,0,0,22,25.78,37.09,35.83.54.35,1.09.7,1.68,1a66.17,66.17,0,0,0,12.27,5.28c16.15,5.41,36.2,8.59,39.5,15.7C1464.19,682,1463.57,686,1463.57,686Z"/><g opacity=".53"><circle cx="965.76" cy="654.04" r="6.69" fill="#fff"/><circle cx="1015.59" cy="654.04" r="6.69" fill="#fff"/><path fill="#fff" d="M1067.75,660.3a6.43,6.43,0,0,1-2.33.43,6.7,6.7,0,0,1-6.68-6.7,2.42,2.42,0,0,1,0-.38,76,76,0,0,1,7.73,5.73Z"/><circle cx="1115.26" cy="654.04" r="6.69" fill="#fff"/><circle cx="1165.09" cy="654.04" r="6.69" fill="#fff"/><circle cx="1214.92" cy="654.04" r="6.69" fill="#fff"/><circle cx="1264.75" cy="654.04" r="6.69" fill="#fff"/><circle cx="1314.58" cy="654.04" r="6.69" fill="#fff"/><circle cx="1364.42" cy="654.04" r="6.69" fill="#fff"/><path fill="#fff" d="M1420.28 656.88a6.63 6.63 0 01-6 3.85 6.7 6.7 0 01-6.7-6.7 6.81 6.81 0 01.46-2.43A66.17 66.17 0 001420.28 656.88zM937.18 672.17h.4a6.69 6.69 0 11-6 9.71"/><circle cx="987.41" cy="678.85" r="6.69" fill="#fff"/><circle cx="1037.24" cy="678.85" r="6.69" fill="#fff"/><circle cx="1087.07" cy="678.85" r="6.69" fill="#fff"/><circle cx="1136.91" cy="678.85" r="6.69" fill="#fff"/><circle cx="1186.74" cy="678.85" r="6.69" fill="#fff"/><circle cx="1236.57" cy="678.85" r="6.69" fill="#fff"/><circle cx="1286.4" cy="678.85" r="6.69" fill="#fff"/><circle cx="1336.23" cy="678.85" r="6.69" fill="#fff"/><circle cx="1386.06" cy="678.85" r="6.69" fill="#fff"/><path fill="#fff" d="M1143.41 624.33a6.7 6.7 0 01-11.71 2.7C1135.49 626.06 1139.41 625.15 1143.41 624.33zM1191.54 618.14c-3.34.15-6.74.38-10.17.68"/><path fill="#fff" d="M1193.43 622.81a6.69 6.69 0 11-12.06-4c3.43-.3 6.83-.53 10.17-.68A6.69 6.69 0 011193.43 622.81zM1242.84 620.5c-4-.49-8-.89-11.94-1.24"/><path fill="#fff" d="M1243.26,622.81a6.69,6.69,0,1,1-12.36-3.55c3.92.35,7.92.75,11.94,1.24A6.53,6.53,0,0,1,1243.26,622.81Z"/><circle cx="1336.23" cy="622.81" r="6.69" fill="#fff"/><circle cx="965.76" cy="699.87" r="6.69" fill="#fff"/><circle cx="1015.59" cy="699.87" r="6.69" fill="#fff"/><circle cx="1065.43" cy="699.87" r="6.69" fill="#fff"/><circle cx="1115.26" cy="699.87" r="6.69" fill="#fff"/><circle cx="1165.09" cy="699.87" r="6.69" fill="#fff"/><circle cx="1214.92" cy="699.87" r="6.69" fill="#fff"/><circle cx="1264.75" cy="699.87" r="6.69" fill="#fff"/><circle cx="1314.58" cy="699.87" r="6.69" fill="#fff"/><circle cx="1364.42" cy="699.87" r="6.69" fill="#fff"/><circle cx="1414.25" cy="699.87" r="6.69" fill="#fff"/><circle cx="937.58" cy="724.68" r="6.69" fill="#fff"/><circle cx="987.41" cy="724.68" r="6.69" fill="#fff"/><circle cx="1037.24" cy="724.68" r="6.69" fill="#fff"/><circle cx="1087.07" cy="724.68" r="6.69" fill="#fff"/><circle cx="1136.91" cy="724.68" r="6.69" fill="#fff"/><circle cx="1186.74" cy="724.68" r="6.69" fill="#fff"/><circle cx="1236.57" cy="724.68" r="6.69" fill="#fff"/><circle cx="1286.4" cy="724.68" r="6.69" fill="#fff"/><circle cx="1336.23" cy="724.68" r="6.69" fill="#fff"/><path fill="#fff" d="M1390.13 719.38a80.65 80.65 0 01-6.36 7.25 28.31 28.31 0 01-2.77 2.43 6.69 6.69 0 019.13-9.68zM971.28 743.77a89.18 89.18 0 00-12.21 3.65 6.7 6.7 0 016.69-6.59A6.63 6.63 0 01971.28 743.77z"/><circle cx="1015.59" cy="747.53" r="6.69" fill="#fff"/><circle cx="1065.43" cy="747.53" r="6.69" fill="#fff"/><circle cx="1115.26" cy="747.53" r="6.69" fill="#fff"/><circle cx="1165.09" cy="747.53" r="6.69" fill="#fff"/><circle cx="1214.92" cy="747.53" r="6.69" fill="#fff"/><circle cx="1264.75" cy="747.53" r="6.69" fill="#fff"/><circle cx="1314.58" cy="747.53" r="6.69" fill="#fff"/><path fill="#fff" d="M981 774.27a108 108 0 0013.06-1.21M994.1 772.36c0 .23 0 .45 0 .69h0A108 108 0 01981 774.27a6.4 6.4 0 01-.29-1.91 6.7 6.7 0 1113.39 0z"/><circle cx="1087.07" cy="772.35" r="6.69" fill="#fff"/><circle cx="1136.91" cy="772.35" r="6.69" fill="#fff"/><circle cx="1186.74" cy="772.35" r="6.69" fill="#fff"/><circle cx="1236.57" cy="772.35" r="6.69" fill="#fff"/><path fill="#fff" d="M1285.61,768.79s1.1,4.51,2.46,10a5.76,5.76,0,0,1-1.67.22,6.69,6.69,0,1,1,5.17-10.94C1287.77,768.69,1285.61,768.79,1285.61,768.79Z"/><circle cx="1165.09" cy="797.15" r="6.69" fill="#fff"/><circle cx="1214.92" cy="797.15" r="6.69" fill="#fff"/><circle cx="1264.75" cy="797.15" r="6.69" fill="#fff"/></g><path fill="#f88817" d="M1304.55 765.32a97.39 97.39 0 01-18.94 3.47c-8.81-17.6 3.77-28.29 3.77-28.29 32.7-40.25 9.43-69.8 11.32-80.49s.62-23.9.62-23.9.64-.6 1.83-1.61c.95 12.43 1.32 26.6 1.32 26.6 14.62 34.44 7.54 57.39-1.26 78.76S1304.55 765.32 1304.55 765.32zM1383.77 726.63c-3.45 3.4-6.35 5.08-8.24 3.8-9.43-6.28 8.81-17.6 4.4-30.18 0 0-1-.79-2.91-2.26-9.28-7.39-38.4-32-51.78-59.48.89 1.07 29.18 35.64 51.86 51.37C1392.73 700.72 1385.83 717.72 1383.77 726.63zM1426.53 708.77l0 0c-4.79 5.74-9.08 9.55-11.36 7.9-6.28-4.5 15.09-29.66 9.43-37.84h0l-.84-.64 0 0c-5.38-4.12-33.19-25.86-43.25-43.68.89.85 29.53 28.21 48.56 40.74C1439.38 682.11 1432.43 697.3 1426.53 708.77zM1450.77 679.58q-7.95-4.85-15.79-9.84c-5.21-3.35-10.44-6.7-15.44-10.36 5.16 3.43 10.52 6.54 15.88 9.65s10.76 6.12 16.18 9.1z"/><polygon fill="#ff9259" points="1637.19 652.01 1636.74 650.39 1654.01 645.64 1658.88 645.93 1658.79 647.6 1654.19 647.33 1637.19 652.01"/><path fill="#f88817" d="M987.45,750c2.59-8.76,13.31-46.5,15-77.42-.7,14.62-3.45,62.36-10.18,83.38-4.74,14.76-15.75,15.86-21.8,17.79-6-1-10.33-3.23-11.22-7.42-2.53-11.94,23.89-4.41,27.66-14.46l.1-.3c.08-.3.23-.8.43-1.49A.12.12,0,0,0,987.45,750Z"/><polygon fill="#ff9259" points="1071.3 667.25 1069.12 640.83 1074.45 660.67 1071.3 667.25"/><path fill="#f88817" d="M1032.35 765.72q2.64-21.63 5.07-43.3c1.59-14.45 3.2-28.9 4.35-43.39-.59 14.53-1.65 29-2.68 43.54s-2.2 29-3.41 43.5zM1200 738.62c-15.11 26.84-49.64 23.89-76 27.27S1091.55 801 1091.55 801l-8.44-21.52s-3.63-.39-8.83-1.11c1.88-12.16-1.44-81.66-3.21-115.59l1.35 1s.66-1.17 2-3.11c2.16 8.67 4.82 20.26 7.4 33.66 5.67 29.45 6.14 71.95 55.67 66.92C1184.74 756.45 1198.79 740.11 1200 738.62z"/><path fill="#ffbfae" d="M1374.92,1131.79s-34,170.89-60.39,232.52c0,0-13.36,32.07-19.5,41,0,0,34,179.69,45.28,218.36s21.7,85.84,21.7,85.84-98.42,10.69-104.71,7.55l-43.39-65.4s-25.78,54.71-36.47,84.26-103.13-47.79-105-52.19c0,0,20.13-110.68,27.67-139.61s39.62-87.4,43.39-93.06l-4.4-68.55s-111.3-114.45-137.09-152.18-18.86-46.53-18.86-46.53l242.75-28c2.5-.28,149.06-37.38,149-39.27S1374.92,1131.79,1374.92,1131.79Z"/><path fill="none" d="M1302,1410.84s-1.14-4.87-2.94-12.42a70,70,0,0,1-4,6.92Z"/><path fill="#f88817" d="M1300.7,660a149.34,149.34,0,0,0-26.6-8.54c-2.27-.51-4.52-1.08-6.8-1.55l-6.87-1.22c-4.56-.93-9.21-1.35-13.81-2a308.24,308.24,0,0,0-55.68-1L1177,647c-2.32.14-4.61.57-6.92.9l-6.9,1c-9.26,1.08-18.31,3.3-27.46,5.07-4.6.79-9.06,2.17-13.58,3.3l-13.55,3.51c-9,2.63-17.79,5.63-26.77,8.29q6.53-2.55,13.11-5c4.39-1.61,8.74-3.36,13.18-4.86l13.46-4.06c4.49-1.31,9-2.79,13.55-3.73,9.15-2.08,18.26-4.38,27.57-5.65l7-1.1c2.32-.35,4.63-.79,7-1l14-1.34a273.38,273.38,0,0,1,56.25,1.71c4.64.78,9.31,1.29,13.88,2.41l6.89,1.5c2.27.57,4.53,1.22,6.8,1.84C1283.51,652.53,1292.45,655.56,1300.7,660Z"/><path fill="#ff9259" d="M1238.12,1189.33s17.93,65.56,24.84,94,32.07,122,32.07,122a70,70,0,0,0,4-6.92c-4.74-19.92-14-58.64-19.07-76.87-6.92-25.16-36.47-127.66-36.47-127.66,7.84-1,89.73-23.55,125.52-33.47,3.72-17.53,5.93-28.63,5.93-28.63s0-13.7,0-15.24c-.22,1.94-146.54,39-149,39.26l-242.75,28s-6.92,8.8,18.86,46.53c1.8,2.63,4,5.64,6.57,8.94C1096.86,1246.12,1238.12,1189.33,1238.12,1189.33Z"/><path fill="#990029" d="M1277,831.36s57.62,78.3,98.18,171.68,37.73,105.64,37.73,105.64-41.5,46.22-173.56,69.8c0,0-124.51,48.11-323.54,33,0,0,20.53-190.54,58.84-274.49s50.58-105.65,50.58-105.65S1148.67,852.12,1277,831.36Z"/><path fill="#1e0020" d="M1155.67 882.67c-59.3 0-138.74-8-148.8-15.25a1.68 1.68 0 012-2.72c10.79 7.79 128.13 18.71 184.8 13.1 56.26-5.56 98.38-24.54 98.8-24.73a1.68 1.68 0 011.39 3c-.43.19-43 19.4-99.86 25C1183.23 882.2 1170 882.67 1155.67 882.67zM942.88 1211.92h0a1.68 1.68 0 01-1.64-1.72c1.87-84.1 41.16-240.9 41.55-242.47l.3-1.19 1.22-.07c28.57-1.79 49.89-14.51 63.37-37.82a95.72 95.72 0 0011.79-34.87 1.67 1.67 0 113.33.31c-.06.7-7.16 70.46-77 75.64-3.63 14.63-39.39 160.67-41.16 240.55A1.68 1.68 0 01942.88 1211.92zM1339.76 933a1.63 1.63 0 01-.71-.16c-22.2-10.46-32.72-26-37.63-37.21-5.34-12.17-5.41-21.77-5.41-22.18a1.67 1.67 0 011.67-1.67h0a1.68 1.68 0 011.68 1.67c0 .37.57 37.26 41.11 56.36a1.67 1.67 0 01-.71 3.19z"/><path fill="#1e0020" d="M1202.7,1032.7a1.7,1.7,0,0,1-1-.35,1.67,1.67,0,0,1-.3-2.35c3.87-5,6.14-17.13,8.36-33.79,2.45-18.37-17.39-115.42-17.59-116.4a1.67,1.67,0,1,1,3.28-.68c.83,4,20.15,98.59,17.63,117.52-2.78,20.88-5.23,30.47-9,35.4A1.7,1.7,0,0,1,1202.7,1032.7Z"/><path fill="#600716" d="M1547.82,1933.56H1304.47c-.94-5.94-1.59-11.62-2-17-4-51.21,13.8-75.93,13.8-75.93l-3.3-4.24-55.66-95.75L1362,1709.54s23.1,63.67,48.11,103.75,58,52.83,101.86,59.9c27.57,4.44,34.64,27.14,36.09,43.39A79,79,0,0,1,1547.82,1933.56Z"/><path fill="#1e0020" d="M1211.62,1051.56a1.7,1.7,0,0,1-1.14-.44,1.68,1.68,0,0,1-.09-2.37c11.94-12.88,13-41.55,13.65-57,0-1.31.1-2.53.15-3.62.61-13.48-17.47-109.17-17.65-110.14a1.67,1.67,0,1,1,3.29-.62c.75,4,18.34,97.05,17.71,110.92,0,1.08-.1,2.28-.15,3.59-.61,15.84-1.76,45.31-14.55,59.1A1.67,1.67,0,0,1,1211.62,1051.56Z"/><path fill="#fff" d="M917.06 1201c-.81 6.73-1.22 10.51-1.22 10.51 199 15.09 323.54-33 323.54-33s-71.15 19.1-168.31 26.1C995.44 1210 938.56 1204 917.06 1201zM1239.38 1178.48c132.06-23.58 173.56-69.8 173.56-69.8-61 46.85-174.82 66-174.82 66z"/><rect width="1.68" height="8.57" x="1085.13" y="1203.4" fill="#fff"/><rect width="4.81" height="1.67" x="1027.81" y="1211.5" fill="#fff" transform="rotate(-60.63 1030.212 1212.338)"/><rect width="1.68" height="6.85" x="1104.13" y="1203.4" fill="#fff"/><rect width="1.68" height="11.83" x="968.3" y="1207.68" fill="#fff"/><rect width="1.68" height="9.27" x="997.54" y="1210.24" fill="#fff"/><rect width="1.67" height="8.19" x="1326.19" y="1151.72" fill="#fff" transform="rotate(-21.4 1327.16 1155.87)"/><rect width="1.67" height="8.19" x="1291.27" y="1163.86" fill="#fff" transform="rotate(-21.4 1292.218 1168.04)"/><rect width="1.67" height="6.13" x="1354.8" y="1143.35" fill="#fff" transform="rotate(-22.62 1355.476 1146.33)"/><rect width="1.67" height="6.13" x="1364.95" y="1140.52" fill="#fff" transform="rotate(-22.62 1365.61 1143.495)"/><rect width="1.68" height="7.83" x="1389.2" y="1124.34" fill="#fff" transform="rotate(-25.42 1390.342 1128.398)"/><path fill="none" d="M1213.91,1663v-11.32s-.9,1.91-2.43,5.21Z"/><path fill="#842117" d="M913.06,948.55l.89-6.83a1.16,1.16,0,0,1,1.18-.94H1159.7l2.65,14.47H919.75C915.73,955.25,912.6,952.12,913.06,948.55Z"/><path fill="#ff9259" d="M1143.48,1451.09c-1.41,2.12-6.83,11.71-13.43,24.38,4.56,22,16.06,57.93,25.38,82.68,12.26,32.54,56,98.75,56,98.75h0c1.53-3.3,2.43-5.21,2.43-5.21s-42.13-64.77-53.45-101.88S1143.48,1451.09,1143.48,1451.09Z"/><path fill="#600716" d="M1215.79,1931.67H1011.12a111.71,111.71,0,0,1-.54-15.09c1.47-47.32,31.79-82.62,33.08-83.47s1.88-7.56,1.88-7.56l12.73-117.42L1167.7,1761l-26.88,84.42c15.09,0,39.14,8,57.53,31.12,10.32,13,14.54,28.73,16.29,40.09A93,93,0,0,1,1215.79,1931.67Z"/><path fill="#992c1a" d="M1074.76,1671s14.64,28.61,50.49,44.17,52.43,12.38,56.4,9.73l3.72-9.17s13,.2,10.15,11.37-10.38,37.59-10.38,37.59-29.71,16.51-81.12-14.62-51.4-40.56-52.35-42.45-2.83-6.6,2.83-28.77,22.19-18.3,22.19-18.3Z"/><path d="M1093.73,1861.56l-1.11-1.26c19.37-17,48-15.78,48.23-15.77l-.08,1.68C1140.49,1846.19,1112.58,1845,1093.73,1861.56Z"/><rect width="17.09" height="1.67" x="1040.53" y="1825.67" transform="rotate(-50.59 1049.03 1826.464)"/><path fill="#992c1a" d="M1215.79 1931.67H1011.12a111.71 111.71 0 01-.54-15.09h204.06A93 93 0 011215.79 1931.67zM1240.6 1691.91l10.76 16.21s24.34 7.08 57.82-2.35 48-17.16 47.64-18.73 3.3-10 11.79-9.1 13.68 43.39 13.68 43.39-18.6 19.34-70.85 27.35-76.77 0-76.77 0-6.61-5.65-10.38-39.14A21.82 21.82 0 011240.6 1691.91z"/><path fill="#4d22d3" d="M1142.79 934.29a4.19 4.19 0 01-4.07-3.21L1115.4 834a4.19 4.19 0 118.14-2l23.32 97.06a4.2 4.2 0 01-4.07 5.17zM1120.22 934.29a4.19 4.19 0 01-4.07-3.21L1092.83 834a4.19 4.19 0 018.15-2l23.32 97.06a4.19 4.19 0 01-3.1 5A4.11 4.11 0 011120.22 934.29zM949.32 963.8l-15.56 223.64-6.53 6.78s-50.07-1.59-53.37-9.13c-3.08-7 28-197.85 33.65-233.93.41-2.53.67-4.31.79-5.2l37.36 3.27 1.59 6.35z"/><path fill="#0e0c44" d="M933.93 1190h0l-1.67-.07a.85.85 0 01-.81-.87.89.89 0 01.87-.8l1.67.06a.84.84 0 010 1.68zM929 1189.83h0c-1 0-2-.1-3.24-.17a.84.84 0 11.1-1.67c1.18.07 2.26.13 3.22.17a.84.84 0 010 1.68zm-6.46-.37h-.05l-3.24-.22a.84.84 0 01-.78-.89.82.82 0 01.9-.78l3.22.22a.84.84 0 010 1.67zM916.11 1189h-.06l-3.24-.27a.84.84 0 01-.76-.91.86.86 0 01.91-.76l3.22.27a.84.84 0 01-.07 1.67zm-6.45-.57h-.08c-1.07-.1-2.15-.22-3.23-.34a.83.83 0 01-.74-.92.84.84 0 01.92-.74l3.22.34a.83.83 0 01.75.91A.85.85 0 01909.66 1188.42zm-6.44-.72h-.1l-3.22-.43a.84.84 0 11.23-1.66l3.2.43a.84.84 0 01-.11 1.67zm-6.41-.92h-.13c-1.11-.18-2.18-.37-3.22-.57a.84.84 0 11.32-1.64c1 .19 2.08.38 3.17.56a.84.84 0 01-.14 1.66zm-6.36-1.23l-.19 0c-1.13-.27-2.19-.54-3.18-.83a.84.84 0 11.48-1.61c1 .28 2 .55 3.08.81a.84.84 0 01-.19 1.65zm-6.19-1.89a.87.87 0 01-.32-.06 11.18 11.18 0 01-3-1.75.84.84 0 011.1-1.26 9.65 9.65 0 002.57 1.46.85.85 0 01.44 1.1A.82.82 0 01884.26 1183.66zm-3.91-4.49a.83.83 0 01-.83-.82v-.46c0-.78 0-1.73.1-2.86a.81.81 0 01.88-.78.82.82 0 01.79.88q-.09 1.63-.09 2.76v.43a.84.84 0 01-.82.85zm.33-6.49h-.07a.83.83 0 01-.76-.9c.08-1 .18-2.09.29-3.25a.86.86 0 01.92-.75.84.84 0 01.75.92c-.11 1.15-.21 2.22-.3 3.22A.83.83 0 01880.68 1172.68zm.63-6.47h-.09a.83.83 0 01-.74-.92c.11-1 .23-2.11.36-3.23a.83.83 0 01.92-.74.84.84 0 01.74.93c-.13 1.11-.25 2.19-.36 3.22A.83.83 0 01881.31 1166.21zm.73-6.44h-.1a.85.85 0 01-.73-.93l.39-3.22a.84.84 0 011.67.2l-.39 3.22A.85.85 0 01882 1159.77zm.8-6.44h-.11a.82.82 0 01-.72-.93l.41-3.22a.82.82 0 01.94-.72.84.84 0 01.72.94l-.41 3.21A.84.84 0 01882.84 1153.33zm.83-6.43h-.11a.84.84 0 01-.72-.94l.43-3.21a.82.82 0 01.94-.72.84.84 0 01.72.94l-.43 3.21A.85.85 0 01883.67 1146.9zm.86-6.43h-.11a.85.85 0 01-.72-1l.44-3.21a.82.82 0 01.94-.71.84.84 0 01.72.94l-.44 3.21A.84.84 0 01884.53 1140.47zm.88-6.41h-.11a.85.85 0 01-.72-1l.45-3.21a.84.84 0 011.66.23l-.45 3.21A.85.85 0 01885.41 1134.06zm.9-6.42h-.12a.85.85 0 01-.71-1l.46-3.21a.84.84 0 011.66.24l-.46 3.21A.85.85 0 01886.31 1127.64zm.92-6.42h-.12a.83.83 0 01-.71-1l.46-3.2a.84.84 0 111.66.24l-.46 3.2A.85.85 0 01887.23 1121.22zm.92-6.41H888a.84.84 0 01-.71-1l.47-3.21a.84.84 0 111.66.24l-.47 3.21A.84.84 0 01888.15 1114.81zm.94-6.41H889a.84.84 0 01-.71-1l.47-3.21a.84.84 0 111.66.25l-.47 3.2A.84.84 0 01889.09 1108.4zM890 1102h-.12a.83.83 0 01-.7-1l.47-3.21a.84.84 0 011-.7.83.83 0 01.71 1l-.48 3.2A.84.84 0 01890 1102zm1-6.41h-.13a.84.84 0 01-.7-1l.48-3.2a.84.84 0 011.66.24l-.48 3.21A.85.85 0 01891 1095.58zm1-6.41h-.13a.84.84 0 01-.7-1l.48-3.2a.84.84 0 111.66.24l-.48 3.21A.85.85 0 01892 1089.17zm1-6.4h-.13a.84.84 0 01-.7-1l.48-3.2a.84.84 0 011.66.25l-.49 3.21A.84.84 0 01892.92 1082.77zm1-6.41h-.13a.83.83 0 01-.7-.95l.49-3.2a.84.84 0 111.65.26l-.48 3.19A.84.84 0 01893.89 1076.36zm1-6.39h-.12a.83.83 0 01-.7-1l.49-3.21a.83.83 0 011-.7.84.84 0 01.7 1l-.49 3.2A.83.83 0 01894.86 1070zm1-6.41h-.13a.83.83 0 01-.7-1l.49-3.21a.84.84 0 011-.7.83.83 0 01.7 1l-.5 3.21A.83.83 0 01895.85 1063.56zm1-6.41h-.12a.84.84 0 01-.7-1l.49-3.2a.84.84 0 011.66.26l-.5 3.2A.84.84 0 01896.83 1057.15zm1-6.4h-.13a.84.84 0 01-.7-1l.49-3.2a.85.85 0 011-.7.84.84 0 01.7 1l-.5 3.2A.84.84 0 01897.83 1050.75zm1-6.4h-.13a.84.84 0 01-.7-1l.5-3.2a.84.84 0 011.66.26l-.5 3.2A.85.85 0 01898.82 1044.35zm1-6.4h-.13a.84.84 0 01-.7-1l.5-3.2a.84.84 0 011.66.26l-.5 3.2A.85.85 0 01899.82 1038zm1-6.41h-.13a.83.83 0 01-.7-1l.5-3.21a.84.84 0 011.66.27l-.5 3.19A.84.84 0 01900.82 1031.54zm1-6.4h-.13a.84.84 0 01-.7-1l.51-3.2a.84.84 0 111.65.26l-.5 3.2A.84.84 0 01901.82 1025.14zm1-6.4h-.13a.84.84 0 01-.7-1l.51-3.2a.84.84 0 011.65.26l-.5 3.21A.84.84 0 01902.83 1018.74zm1-6.4h-.13a.83.83 0 01-.7-1l.51-3.21a.84.84 0 011.65.27l-.5 3.2A.85.85 0 01903.84 1012.34zm1-6.4h-.13a.83.83 0 01-.7-.95l.51-3.2a.85.85 0 011-.7.83.83 0 01.69 1l-.5 3.2A.84.84 0 01904.85 1005.94zm1-6.4h-.14a.83.83 0 01-.69-.95l.51-3.2a.84.84 0 111.65.26l-.51 3.2A.83.83 0 01905.87 999.54zm1-6.4h-.13a.83.83 0 01-.7-1l.51-3.2a.84.84 0 111.66.26l-.51 3.2A.84.84 0 01906.88 993.14zm1-6.4h-.13a.84.84 0 01-.7-1l.51-3.2a.84.84 0 011.65.27l-.51 3.2A.83.83 0 01907.9 986.74zm1-6.4h-.14a.84.84 0 01-.69-1l.51-3.2a.84.84 0 011.65.27l-.51 3.2A.83.83 0 01908.92 980.34zm1-6.4h-.14a.83.83 0 01-.69-1l.51-3.2a.82.82 0 011-.69.83.83 0 01.69.95l-.51 3.21A.83.83 0 01909.94 973.94zm1-6.4h-.14a.84.84 0 01-.69-1l.51-3.2a.84.84 0 111.65.26l-.51 3.2A.84.84 0 01911 967.54zm1-6.41h-.14a.83.83 0 01-.69-1l.51-3.2a.82.82 0 011-.69.83.83 0 01.69 1l-.51 3.21A.83.83 0 01912 961.13zm1-6.4h-.13a.83.83 0 01-.69-1l.5-3.2a.84.84 0 111.66.26l-.51 3.2A.85.85 0 01913 954.73zM914 948.62h-.13a.84.84 0 01-.7-1l.26-1.65a.83.83 0 011-.7.84.84 0 01.7 1l-.26 1.65A.84.84 0 01914 948.62z"/><path fill="#7634ff" d="M1223.46,1171.26l-7.92,2.46a632,632,0,0,1-273.39,22.56l-14.92-2.06a7.39,7.39,0,0,1-6.38-8l21.62-232.63.15-1.54a3.11,3.11,0,0,1,3-2.8L1178.09,946a3.08,3.08,0,0,1,3.05,2.41l16,71.86,31.57,142A7.69,7.69,0,0,1,1223.46,1171.26Z"/><path fill="#4d22d3" d="M1030.78,1196h-1.42v-1.67h3.35V1196Zm-4.78,0-3.35,0,0-1.68,3.35,0Zm10.07,0,0-1.67,3.35,0,0,1.67Zm-16.78-.08-3.35-.08,0-1.67,3.35.07Zm23.49,0,0-1.68,3.35-.07,0,1.67Zm-30.19-.16-3.36-.11.06-1.67,3.35.11Zm36.89,0,0-1.68,3.34-.11.07,1.67Zm-43.6-.23-3.35-.15.08-1.67,3.34.15Zm50.31,0-.07-1.67,3.34-.15.08,1.67Zm-57-.29-3.35-.19.1-1.67,3.34.19Zm63.71,0-.09-1.67,3.34-.19.1,1.67Zm-70.41-.36-3.35-.22.12-1.67,3.34.22Zm77.11,0-.11-1.67,3.34-.23.11,1.67Zm-83.8-.43-3.34-.26.13-1.67,3.34.26Zm90.49,0-.13-1.67,3.34-.26.13,1.67Zm-97.18-.5-3.34-.29.16-1.67,3.33.29Zm103.86,0-.14-1.67,3.33-.3.16,1.67Zm-110.54-.57-3.34-.33.17-1.67,3.33.33Zm117.23,0-.17-1.67,3.33-.33.17,1.66Zm-123.9-.63-3.34-.37.19-1.67,3.33.37Zm130.57-.06-.18-1.67,3.32-.37.2,1.67Zm-137.24-.7-3.33-.41.21-1.66,3.32.4Zm143.91-.07-.2-1.66,3.32-.41.21,1.66Zm-150.57-.77-3.32-.44.23-1.66,3.31.44Zm157.23-.06-.22-1.67,3.31-.44.23,1.66ZM945.78,1190l-3.32-.46.23-1.66,3.32.46Zm170.51-.08-.23-1.66,3.31-.48.24,1.66Zm-177.15-.84-3.32-.45.23-1.66,3.32.46Zm183.79-.14-.26-1.66,3.31-.52.26,1.65Zm6.62-1.06-.27-1.66,3.3-.55.28,1.65Zm-197.2,0a7.84,7.84,0,0,1-3-2.21l1.28-1.07a6.42,6.42,0,0,0,2.35,1.74Zm203.82-1.13-.29-1.65,3.29-.59.3,1.65Zm6.6-1.21-.31-1.64,3.29-.63.31,1.64Zm6.59-1.28-.33-1.64,3.28-.66.34,1.64Zm6.57-1.35-.35-1.64,3.27-.7.36,1.64Zm-228.21-.56a7.8,7.8,0,0,1-.2-1.74,6.23,6.23,0,0,1,0-.74l.1-1.12,1.67.16-.11,1.12c0,.19,0,.39,0,.58a6.32,6.32,0,0,0,.15,1.37Zm234.77-.87-.37-1.63,3.27-.74.37,1.63Zm6.54-1.5-.38-1.63,3.25-.77.39,1.63Zm6.52-1.57-.4-1.63c1.09-.26,2.17-.54,3.25-.81l.41,1.63Zm6.51-1.64-.42-1.63,3.24-.84.43,1.62Zm-252.42-1.2-1.67-.15.31-3.34,1.67.16Zm258.91-.52-.44-1.62,3.23-.88.44,1.61Zm6.46-1.79-.45-1.61,3.22-.92.46,1.61Zm6.45-1.86-.47-1.61,3.21-1,.48,1.6Zm6.43-1.93-.49-1.6,3.2-1,.5,1.6Zm-277.63-.57-1.67-.15.31-3.34,1.67.16Zm284-1.42-.5-1.6,3.43-1.07.55,1.58Zm6.61-3.07-1.2-1.17a6.67,6.67,0,0,0,1.54-2.51l1.59.53A8.42,8.42,0,0,1,1220.91,1164.4Zm-290-2.18-1.67-.15.31-3.34,1.67.16Zm290.64-4.43c0-.19-.06-.38-.1-.56l-.59-2.65,1.63-.36.59,2.64c0,.23.1.47.13.7Zm-290-2.24-1.67-.15.31-3.34,1.67.15Zm288.6-4.24-.73-3.27,1.64-.36.73,3.27Zm-288-2.43-1.67-.15.31-3.34,1.67.15Zm286.53-4.11-.73-3.27,1.64-.36.72,3.27Zm-285.91-2.56-1.67-.16.31-3.33,1.67.15Zm284.45-4-.73-3.27,1.64-.36.73,3.27Zm-283.83-2.69-1.67-.16.31-3.33,1.67.15Zm282.38-3.85-.73-3.27,1.64-.36.72,3.27ZM934,1128.86l-1.67-.15.31-3.34,1.67.16Zm280.3-3.71-.72-3.27,1.63-.36.73,3.27Zm-279.68-3-1.67-.15.31-3.34,1.67.16Zm278.23-3.58-.73-3.27,1.64-.36.72,3.27Zm-277.61-3.09-1.67-.15.31-3.34,1.67.15Zm276.15-3.45-.72-3.27,1.63-.37.73,3.28Zm-275.53-3.22-1.67-.15.31-3.34,1.67.15Zm274.08-3.32-.73-3.27,1.64-.37.73,3.27Zm-273.46-3.35-1.67-.16.31-3.33,1.67.15Zm272-3.19-.72-3.27,1.63-.37.73,3.27Zm-271.38-3.48-1.67-.16.31-3.33,1.67.15Zm269.93-3.06-.73-3.27,1.64-.37.73,3.27Zm-269.31-3.61-1.67-.16.31-3.33,1.67.15Zm267.86-2.93-.73-3.27,1.63-.37.73,3.27Zm-267.24-3.75-1.67-.15.31-3.34,1.67.16Zm265.78-2.79-.73-3.27,1.64-.37.73,3.27Zm-265.16-3.88-1.67-.15.31-3.34,1.67.16Zm263.71-2.66-.73-3.28,1.64-.36.72,3.27Zm-263.09-4-1.67-.15.31-3.34,1.67.15Zm261.63-2.54-.72-3.27,1.63-.36.73,3.27Zm-261-4.13-1.67-.15.31-3.34,1.67.15Zm259.56-2.41-.73-3.27,1.64-.36.72,3.27Zm-258.94-4.26-1.67-.16.31-3.33,1.67.15Zm257.48-2.28-.72-3.27,1.63-.36.73,3.27Zm-256.86-4.39-1.67-.16.31-3.33,1.67.15Zm255.41-2.15-.73-3.27,1.64-.36.72,3.27ZM942,1042.13l-1.67-.15.31-3.33,1.67.15Zm253.33-2-.72-3.27,1.63-.36.73,3.27Zm-252.71-4.66-1.67-.15.31-3.34,1.67.16Zm251.26-1.88-.73-3.27,1.64-.36.73,3.27Zm-250.64-4.79-1.67-.15.31-3.34,1.67.16Zm249.19-1.75-.73-3.27,1.63-.36.73,3.27Zm-248.57-4.92-1.67-.15.31-3.34,1.67.15ZM1191,1020.5l-.73-3.27,1.64-.36.73,3.27Zm-246.49-5-1.67-.16.31-3.33,1.67.15Zm245-1.49-.73-3.27,1.63-.36.73,3.27Zm-244.42-5.18-1.67-.16.31-3.33,1.67.15Zm243-1.36-.73-3.27,1.64-.36.73,3.27Zm-242.34-5.31-1.67-.16.31-3.33,1.67.15Zm240.89-1.23-.73-3.27,1.64-.36.72,3.27Zm-240.27-5.44-1.67-.16.31-3.34,1.67.16Zm238.81-1.1-.72-3.27,1.63-.36.73,3.27ZM947,988.76l-1.67-.15.31-3.34,1.67.16Zm236.74-1-.73-3.27,1.64-.36.72,3.27Zm-236.12-5.71-1.67-.15.31-3.34,1.67.16Zm234.66-.83-.72-3.27,1.63-.36.73,3.27Zm-234-5.84-1.67-.15.31-3.34,1.67.16Zm232.59-.7-.73-3.27,1.64-.37.73,3.28Zm-232-6-1.67-.16.31-3.33,1.67.15Zm230.51-.57-.72-3.27,1.63-.37.73,3.27Zm-229.89-6.1-1.67-.16.31-3.33,1.67.15Zm228.44-.44-.73-3.27,1.64-.37.73,3.27Zm-227.7-5.89-1.49-.75a3.81,3.81,0,0,1,3.32-2.09l.15.83v.84A2.2,2.2,0,0,0,950.22,955.75Zm226.25-.65-.45-2a2.12,2.12,0,0,0-.39-.85l1.32-1a4,4,0,0,1,.71,1.51l.44,2Zm-220.91-.57,0-1.67,3.35-.05,0,1.67Zm6.7-.09,0-1.68,3.35,0,0,1.67Zm6.7-.1,0-1.67,3.35,0,0,1.68Zm6.7-.09,0-1.68,3.35,0,0,1.67Zm6.7-.09,0-1.68,3.35-.05,0,1.68Zm6.7-.1,0-1.67,3.35,0,0,1.67Zm6.7-.09,0-1.68,3.35,0,0,1.68Zm6.7-.1,0-1.67,3.35-.05,0,1.68Zm6.7-.09,0-1.68,3.35,0,0,1.67Zm6.7-.1,0-1.67,3.35,0,0,1.68Zm6.7-.09,0-1.68,3.35,0,0,1.67Zm6.7-.09,0-1.68,3.35-.05,0,1.68Zm6.7-.1,0-1.67,3.35-.05,0,1.67Zm6.7-.09,0-1.68,3.35,0,0,1.67Zm6.7-.1,0-1.67,3.35,0,0,1.68Zm6.7-.09,0-1.68,3.35,0,0,1.67Zm6.7-.1,0-1.67,3.35-.05,0,1.68Zm6.7-.09,0-1.67,3.35,0,0,1.67Zm6.7-.09,0-1.68,3.35,0,0,1.68Zm6.69-.1,0-1.67,3.35-.05,0,1.68Zm6.7-.09,0-1.68,3.35,0,0,1.67Zm6.7-.1,0-1.67,3.35,0,0,1.68Zm6.7-.09,0-1.67,3.35,0,0,1.67Zm6.7-.09,0-1.68,3.35-.05,0,1.68Zm6.7-.1,0-1.67,3.35-.05,0,1.67Zm6.7-.09,0-1.68,3.35,0,0,1.67Zm6.7-.1,0-1.67,3.35,0,0,1.68Zm6.7-.09,0-1.68,3.35,0,0,1.67Zm6.7-.09,0-1.68,3.35-.05,0,1.68Zm6.7-.1,0-1.67,3.35,0,0,1.67Zm6.7-.09,0-1.68,3.35,0,0,1.68Zm6.7-.1,0-1.67,3.35-.05,0,1.68Zm6.7-.09,0-1.68,3.35,0,0,1.67Z"/><path fill="#3a28a0" d="M1197.12,1023.1a27.5,27.5,0,0,1-23.3,17.1L982.21,1055c-16.29,1.25-30.06-12.11-29.62-28.72l1.51-57A15.45,15.45,0,0,0,947.25,956a14.13,14.13,0,0,0-4.78-2.09,13.22,13.22,0,0,0-2.53-.4l-32.43-2.1c.41-2.63.67-4.48.79-5.4l37.36,3.39L1178.09,946a3.11,3.11,0,0,1,3.05,2.51Z" opacity=".33"/><path fill="#b9a6ff" d="M908.36,949.31l35,2.2a15,15,0,0,1,14.15,15.2l-1.5,54.93c-.44,16,13.33,28.87,29.62,27.66l191.6-14.27c16.62-1.23,28.32-16.55,24.87-32.53l-11.84-54.73a18.44,18.44,0,0,0-18.58-14.37l-255.22,6.49a8.23,8.23,0,0,0-8.1,8.15Z"/><path fill="#210010" d="M773,1581.62l-3.27-.72,27.12-123.08c4.54-29.81,35.13-54.16,68.17-54.16,17.14,0,32.58,6.85,43.47,19.29,12.08,13.79,17.48,33.13,14.83,53L900.86,1581.6l-3.28-.69L920,1475.42c2.51-18.83-2.61-37.2-14-50.27-10.24-11.69-24.79-18.14-41-18.14-31.46,0-60.56,23.07-64.88,51.42Z"/><polygon fill="#ff6500" points="991.04 1933.56 606.05 1933.56 703.2 1553.99 976.75 1553.99 991.04 1933.56"/><polygon fill="#ff8600" points="841.07 1932.45 567.52 1932.45 664.67 1552.88 938.22 1552.88 841.07 1932.45"/><path fill="#ff6500" d="M737.86,1582.93a1.47,1.47,0,0,1-.36,0,1.68,1.68,0,0,1-1.28-2l27.13-123.08c4.54-29.81,35.13-54.16,68.16-54.16,17.15,0,32.59,6.85,43.48,19.29,12.08,13.79,17.48,33.13,14.83,53L867.36,1581.6a1.68,1.68,0,1,1-3.28-.69l22.44-105.49c2.5-18.83-2.61-37.2-14-50.27-10.24-11.69-24.79-18.14-41-18.14-31.45,0-60.55,23.07-64.87,51.42L739.5,1581.62A1.69,1.69,0,0,1,737.86,1582.93Z"/><path fill="#210010" d="M527.78,1717.14l-3.25-.81,30.83-123.08c5.16-29.78,39.82-54.11,77.25-54.11,21.2,0,39.72,8,52.17,22.44,11.75,13.67,16.68,31.4,13.87,49.92l-25.53,105.63-3.26-.79,25.51-105.49c2.63-17.39-2-34.17-13.13-47.08-11.8-13.72-29.42-21.28-49.63-21.28-35.87,0-69.06,23.08-74,51.45Z"/><polygon fill="#ffb500" points="753.69 1931.67 329.14 1931.67 401.16 1686.9 755.37 1686.9 753.69 1931.67"/><polygon fill="#ffcc5e" points="658.22 1931.67 304.01 1931.67 376.04 1686.9 730.24 1686.9 658.22 1931.67"/><path fill="#fff" d="M1204.55,586.64h-.1c-56.59-1.89-70-59-70.12-59.61a.84.84,0,0,1,1.64-.37c.13.57,13.25,56.39,68.43,58.3,1.81-.44,29.82-8.07,38.77-54.79a.84.84,0,0,1,1.65.32c-4.92,25.66-15.53,39.54-23.56,46.66-8.77,7.78-16.29,9.41-16.61,9.47Z"/><path fill="#fff" d="M1207.14,680l-.44-.17c-68.87-25.82-80.4-148.25-80.5-149.48a.84.84,0,0,1,.76-.91.83.83,0,0,1,.9.76c.11,1.22,11.49,122.07,79,147.89,4.62-3.88,51.92-46.29,43.5-143.13a.84.84,0,0,1,.76-.91.83.83,0,0,1,.9.77c8.9,102.24-44,144.48-44.49,144.89Z"/><circle cx="1206.6" cy="684.28" r="4.86" fill="#fff"/><circle cx="1203.92" cy="590.06" r="4.86" fill="#fff"/><path fill="#470f20" d="M899.86,510.8a61.64,61.64,0,0,0-14.4,6.34,79.51,79.51,0,0,0-12.73,9.57,82.19,82.19,0,0,0-18.62,25.82c-4.58,9.73-7.07,20.25-8.9,30.87s-3.11,21.45-4.41,32.22c-.65,5.39-1.28,10.78-2,16.17a99.31,99.31,0,0,1-3.4,16,43,43,0,0,1-7.85,14.38,85.21,85.21,0,0,1-11.82,11.29c-4.22,3.43-8.57,6.7-13,9.87s-8.91,6.2-13.2,9.51a51.22,51.22,0,0,0-11.33,11.53,57.34,57.34,0,0,0-6.77,14.72,57,57,0,0,1,6.6-14.84,51.76,51.76,0,0,1,11.24-11.74c4.27-3.38,8.74-6.46,13.09-9.69s8.66-6.53,12.82-10a85.11,85.11,0,0,0,11.54-11.31,41.75,41.75,0,0,0,7.46-14.11,96.62,96.62,0,0,0,3.14-15.83c.68-5.37,1.25-10.76,1.83-16.16,1.16-10.79,2.41-21.59,4-32.35s4.12-21.56,8.69-31.6a84.89,84.89,0,0,1,18.89-26.91c8.09-7.55,17.44-13.76,28.36-17Z"/><path fill="#470f20" d="M780.53,703.42a34.81,34.81,0,0,0-7.67,5.05,40.12,40.12,0,0,0-6.34,6.87,41.85,41.85,0,0,0-7.13,17.25,29.61,29.61,0,0,0-.59,4.7l-.21,2.37,0,2.38a39.93,39.93,0,0,0,.94,9.41c1.46,6.15,4.6,11.82,8.28,17.08s7.82,10.32,11.33,15.84,6.35,11.59,7.29,18.1a47.32,47.32,0,0,1,.48,4.89c0,1.63,0,3.27-.16,4.9a55,55,0,0,1-1.71,9.61,91.51,91.51,0,0,1-7.38,18,91.32,91.32,0,0,0,7-18.09,55.29,55.29,0,0,0,1.48-9.55,45.57,45.57,0,0,0,.05-4.82,40.22,40.22,0,0,0-.57-4.78c-1-6.35-4-12.22-7.51-17.55s-7.81-10.28-11.65-15.56-7.25-11.06-9-17.54a41.93,41.93,0,0,1-1.2-9.88l-.09-2.48.15-2.48a33.12,33.12,0,0,1,.52-5,44.54,44.54,0,0,1,7.22-18.53,40.94,40.94,0,0,1,15.09-13.3Z"/><path fill="#1e0020" d="M865.56 893.93c-3.37 5.36-6.9 10.59-9.95 16.1-1.64 2.69-3.06 5.5-4.59 8.24-1.37 2.82-2.9 5.57-4.13 8.44a120.78 120.78 0 00-6.62 17.49c-.93 3-1.58 6-2.26 9a86.75 86.75 0 00-1.21 9.2 70.89 70.89 0 00.71 18.46c.15 1.54.6 3 .9 4.54l1.05 4.61c.32 1.57.78 3.11 1 4.71l.67 4.78a53.77 53.77 0 01-1.29 19.17 43.16 43.16 0 01-3.4 9 30.15 30.15 0 01-5.49 7.76 39.18 39.18 0 007.29-17.09 55.45 55.45 0 00.29-18.49l-.83-4.58c-.26-1.52-.73-3-1.09-4.51l-1.16-4.61a47.38 47.38 0 01-1.07-4.72 72.79 72.79 0 01-.92-19.27 93.33 93.33 0 011.34-9.57c.74-3.12 1.4-6.27 2.44-9.31a109.89 109.89 0 017.31-17.7C850.24 914.16 857.65 903.78 865.56 893.93zM1002.44 520.25a139.61 139.61 0 00-24.32 13.46 126.35 126.35 0 00-21 18 93.61 93.61 0 00-15.6 22.69 75.48 75.48 0 00-4.87 12.87 114.35 114.35 0 00-2.75 13.57c-3.26 18.33-9 36.62-18.88 52.68a130.56 130.56 0 01-17.35 22.12 231.08 231.08 0 01-20.77 18.71c13.1-13.19 26.07-26.61 35.37-42.49s15.18-33.48 19.25-51.5l1.49-6.81.76-3.44c.28-1.15.63-2.27.95-3.4a77.44 77.44 0 015.18-13.1 92.85 92.85 0 0116.29-22.78 127.34 127.34 0 0121.57-17.75A134.4 134.4 0 011002.44 520.25zM949.33 509.18a109.79 109.79 0 00-20.22 11.62 106.5 106.5 0 00-17.27 15.42 82.36 82.36 0 00-20.2 40.67c-1.38 7.47-1.52 15.39-2.64 23.19a167 167 0 01-4.45 23.19 86.41 86.41 0 01-8.94 21.89 65.29 65.29 0 01-7.09 9.47c-2.63 2.93-5.53 5.56-8.25 8.36 2.46-3 5.15-5.9 7.57-8.94a64.15 64.15 0 006.34-9.7A91.3 91.3 0 00882 622.62a184.07 184.07 0 003.84-22.93c.5-3.84.77-7.73 1.11-11.6s.66-7.9 1.38-11.8a80.35 80.35 0 017.7-22.55 84.58 84.58 0 0113.88-19.29A100.53 100.53 0 01949.33 509.18zM814 710.6c-7.9 5.17-13.11 14-13 23a34 34 0 002.8 13.19c.46 1 .78 2.14 1.32 3.15l1.62 3 3.34 6.29a23.87 23.87 0 011.52 3.29L813 766a27.87 27.87 0 011.11 3.46c.32 1.17.67 2.33 1 3.51l.6 3.59.29 1.79.13 1.82c.07 1.21.19 2.42.23 3.62l-.13 3.63a50.31 50.31 0 01-9.35 26.76 58.25 58.25 0 006.74-26.84 59 59 0 00-1.6-13.65l-1-3.3a26.63 26.63 0 00-1.08-3.27 57.84 57.84 0 00-2.79-6.29l-3.22-6.25-1.67-3.23a35.64 35.64 0 01-1.34-3.39 34.54 34.54 0 01-2.45-14.39 25.85 25.85 0 014.68-13.76A28.29 28.29 0 01814 710.6zM792.28 864.69A56 56 0 00785 873.4a37.28 37.28 0 00-4.93 9.93 22.64 22.64 0 00-.77 10.63 21.64 21.64 0 001.53 5.09c.34.83.79 1.59 1.21 2.42l1.4 2.5c1.82 3.39 3.65 6.78 5.22 10.36a34 34 0 013 11.49 28.83 28.83 0 01-1.86 11.67 68.86 68.86 0 01-4.95 10.44c1.23-3.64 2.51-7.24 3.38-10.91a30 30 0 00.83-11 34.87 34.87 0 00-3.33-10.43c-1.59-3.38-3.41-6.72-5.26-10l-1.37-2.52c-.43-.88-.94-1.79-1.31-2.73a22.65 22.65 0 01-1.66-5.89 24.29 24.29 0 011.43-12 34.82 34.82 0 016.1-10.07A41.81 41.81 0 01792.28 864.69z"/><path fill="#ffbfae" d="M1074.28,778.37s81.68,19,89.2,20,19.31-10.37,25-15.56,5.66,17.45,8,27.35,52.9,8.27,63.67,4,7.55-11.08,7.55-11.08,6.6-1.3,6.6,4.85-1.51,14.94-9.74,23.44-2.21,11.64-18.24,20.76c0,0-8.8,14.46-18.55,17.92s-49.37-7.23-60.06-10.06-49,.79-96.62,8.49-101.46,8.17-132.27-10.69-33-71.47-22-99.41c0,0,24.87-3.17,46.84-12.71l-4.39,20.62s2.49,7.38,16.33,7.94,55.15-13.14,61.38-7.16S1074.28,778.37,1074.28,778.37Z"/><g opacity=".15"><path fill="#fff" d="M1204.25 422.94l-18.42 32.73a28.12 28.12 0 01-12.94-5.63l15.25-27.1zM1214.42 422.94l-18.33 32.55a28.44 28.44 0 01-5.66.57c-.28 0-.58 0-.87 0l18.63-33.1zM1263.21 422.94L1247 451.82a24.72 24.72 0 01-12.32-6.73l12.47-22.15zM1273.38 422.94l-16.3 28.95a25.42 25.42 0 01-4.89.48c-.53 0-1 0-1.57-.05l16.55-29.38z"/></g><path fill="#040911" d="M1190.43,457.73c-.32,0-.65,0-1,0a25.53,25.53,0,0,1-3.93-.39,30.32,30.32,0,0,1-25-34.64l.23-1.41h117.07l.27,1.35a26.1,26.1,0,0,1,.48,5,26.43,26.43,0,0,1-21.16,25.87,26.88,26.88,0,0,1-6.9.46,29.13,29.13,0,0,1-3.89-.53,26.41,26.41,0,0,1-18.15-14.21,25.62,25.62,0,0,1-2.27-7h-5.86a30.31,30.31,0,0,1-29.91,25.48Zm-26.79-33.11c-.09.92-.14,1.86-.14,2.81A26.92,26.92,0,0,0,1186.09,454a25,25,0,0,0,3.51.35h.83a27.45,27.45,0,0,0,5.33-.53,27.08,27.08,0,0,0,21.45-23.45l.16-1.5h11.78l.17,1.49a22.47,22.47,0,0,0,2.16,7.39,23,23,0,0,0,15.84,12.4,25.22,25.22,0,0,0,3.41.47,23.67,23.67,0,0,0,6-.41,23.06,23.06,0,0,0,18.47-22.58,21.76,21.76,0,0,0-.2-3Z"/><path fill="#470f20" d="M1263.29,378.3a127.38,127.38,0,0,1,11.36,18.07c1.72,3.1,3.18,6.33,4.69,9.53s2.75,6.52,4.12,9.78A185.48,185.48,0,0,1,1294,456.62l.42,2.61.25,2.63.5,5.26.49,5.27.14,5.28L1296,483a49,49,0,0,1,0,5.28l-.48,10.54A48.7,48.7,0,0,1,1295,504l-.63,5.24-.62,5.23a28.68,28.68,0,0,1-1,5.19c-.89,3.4-1.88,6.77-3,10.1a58.17,58.17,0,0,1-4.12,9.68,57.91,57.91,0,0,0,3.92-9.75c1.07-3.34,2-6.73,2.81-10.13a26.82,26.82,0,0,0,.9-5.16l.52-5.23.52-5.24c.17-1.74.37-3.48.37-5.24l.26-10.5a48.41,48.41,0,0,0-.09-5.25l-.24-5.25-.24-5.24-.59-5.21-.61-5.21-.3-2.61-.46-2.58a183.45,183.45,0,0,0-11.24-40.27c-1.43-3.18-2.74-6.42-4.25-9.55s-3.05-6.27-4.8-9.28a124.45,124.45,0,0,0-11.37-17.33Z"/><path fill="#7634ff" d="M969.35,947.69a4.6,4.6,0,0,1-.64-.05,4.35,4.35,0,0,1-3.51-5c9.2-62.72,29.42-142.73,73.45-167.73,23.59-13.39,42.76-4.69,43.57-4.32a4.45,4.45,0,0,1,2.1,5.78,4.11,4.11,0,0,1-5.52,2.2c-.7-.32-16.51-7.27-36.39,4.15-22.55,13-52.82,51.44-68.93,161.24A4.25,4.25,0,0,1,969.35,947.69Z"/><path fill="#ff9259" d="M1034,765.9l.17,0c-11.25-2.24-46.12,8.87-58.62,8.37-13.84-.56-16.33-7.94-16.33-7.94l4.39-20.62c-22,9.54-46.84,12.71-46.84,12.71a75.51,75.51,0,0,0-3.21,10.42c11.95-.34,28.32-1.71,35.75-6.42C961.75,754.51,925.81,795.7,1034,765.9Z" opacity=".67"/><path fill="#7634ff" d="M945.9,942.66a3.45,3.45,0,0,1-.64,0,4.34,4.34,0,0,1-3.51-5c9.2-62.72,29.41-142.73,73.45-167.73,23.59-13.39,42.76-4.69,43.57-4.31a4.44,4.44,0,0,1,2.1,5.77,4.12,4.12,0,0,1-5.52,2.21c-.7-.32-16.51-7.27-36.39,4.15C996.4,790.67,966.14,829.16,950,939A4.24,4.24,0,0,1,945.9,942.66Z"/><path fill="#1e0020" d="M813.39,942.71l-1.67-.1c.38-6.61-.44-12.78-1.31-19.32-2.32-17.44-4.72-35.47,16-63.19,25.88-34.64,16.7-81.57,10-115.84-.54-2.75-1.06-5.43-1.55-8-6.63-35,24.66-55.38,25-55.58l.9,1.41c-.31.2-30.65,19.94-24.23,53.86q.74,3.87,1.55,8c6.76,34.57,16,81.93-10.3,117.17-20.29,27.16-17.94,44.85-15.67,62C813,929.69,813.78,935.94,813.39,942.71Z"/><path fill="#470f20" d="M1233 388.08a55.51 55.51 0 00-5.82-6.31 29.77 29.77 0 00-6.83-4.84 16.45 16.45 0 00-8-1.81 19.93 19.93 0 00-8.11 2.26 14.94 14.94 0 0116.8-1.95 24.55 24.55 0 017 5.42A28.91 28.91 0 011233 388.08zM1224.29 388.08a34.63 34.63 0 00-7.62-3.38 18.9 18.9 0 00-8-.74 14.47 14.47 0 00-7.26 3.13l-.83.61c-.26.22-.48.48-.73.71l-1.48 1.46c-1 1-1.73 2.18-2.68 3.25.63-1.26 1.28-2.54 2-3.76l1.34-1.71c.22-.28.44-.57.69-.83l.82-.73a14 14 0 017.87-3.79 17.27 17.27 0 018.64 1.17A22 22 0 011224.29 388.08z"/><path fill="#ffb500" d="M488.08,1718.41a1.84,1.84,0,0,1-.41-.05,1.68,1.68,0,0,1-1.22-2l30.83-123.08c5.16-29.78,39.82-54.11,77.25-54.11,21.2,0,39.72,8,52.17,22.44,11.75,13.67,16.68,31.4,13.87,49.92L635,1717.13a1.68,1.68,0,0,1-3.26-.79l25.51-105.49c2.63-17.39-2-34.17-13.13-47.08-11.8-13.72-29.42-21.28-49.63-21.28-35.87,0-69.06,23.08-74,51.45l-30.86,123.2A1.67,1.67,0,0,1,488.08,1718.41Z"/><path fill="#1a1617" d="M1918.78 619.38l-1.5-.74c.49-1 .77-1.52.77-1.52l1.47.8S1919.25 618.42 1918.78 619.38zM1913.63 631.46l-1.57-.59c.42-1.09.82-2.13 1.21-3.1l1.55.63C1914.44 629.36 1914 630.38 1913.63 631.46zm2.44-6.11l-1.54-.65c.48-1.14.93-2.15 1.33-3.05l1.53.69C1917 623.22 1916.55 624.23 1916.07 625.35zM1923.27 784.5c-.57-1-1.13-1.91-1.68-2.87l1.45-.83c.55.94 1.1 1.89 1.67 2.84zm-3.31-5.77c-.53-1-1-2-1.56-2.92l1.48-.78c.51 1 1 1.93 1.55 2.9zm-3.07-5.88c-.5-1-1-2-1.46-3l1.52-.72c.46 1 .94 2 1.43 3zm-2.85-6c-.46-1-.9-2-1.34-3l1.55-.66c.42 1 .86 2 1.32 3zm-2.6-6.11c-.42-1-.82-2.07-1.21-3.1l1.56-.59q.59 1.53 1.2 3.06zm-2.36-6.22c-.37-1-.73-2.09-1.08-3.14l1.59-.53c.34 1 .7 2.07 1.07 3.11zm-2.1-6.3c-.33-1.07-.65-2.13-1-3.19l1.61-.46c.3 1.05.62 2.1.94 3.15zm-1.84-6.39c-.28-1.08-.56-2.15-.82-3.22l1.63-.4c.26 1.06.53 2.13.81 3.19zm-1.58-6.46c-.24-1.08-.47-2.17-.69-3.25l1.65-.33c.21 1.07.44 2.14.68 3.22zm-1.31-6.51c-.2-1.1-.38-2.19-.56-3.28l1.66-.26c.17 1.08.35 2.16.55 3.24zm-1-6.56c-.16-1.11-.3-2.2-.43-3.3l1.66-.2c.13 1.09.28 2.17.43 3.27zm-.79-6.6c-.11-1.11-.21-2.21-.3-3.31l1.67-.13c.09 1.08.18 2.18.29 3.27zm-.53-6.63c-.07-1.11-.13-2.21-.17-3.31l1.67-.07c0 1.09.1 2.18.17 3.28zm-.28-6.63c0-1.12 0-2.23 0-3.33h1.67c0 1.09 0 2.19 0 3.29zm1.65-6.62l-1.67 0c0-1.11 0-2.22.08-3.32l1.67.06C1901.29 693.61 1901.27 694.7 1901.25 695.81zm.22-6.58l-1.67-.09c.06-1.11.12-2.22.2-3.31l1.67.11C1901.59 687 1901.53 688.12 1901.47 689.23zm.46-6.57l-1.67-.14c.1-1.12.21-2.22.32-3.31l1.67.17C1902.13 680.47 1902 681.56 1901.93 682.66zm.69-6.55l-1.66-.2c.14-1.11.28-2.21.43-3.29l1.66.23C1902.9 673.93 1902.76 675 1902.62 676.11zm.92-6.52l-1.65-.26c.17-1.1.36-2.2.55-3.27l1.65.29C1903.9 667.42 1903.72 668.5 1903.54 669.59zm1.14-6.48l-1.64-.32c.21-1.1.43-2.19.66-3.26l1.64.35C1905.11 660.94 1904.89 662 1904.68 663.11zm1.37-6.44l-1.64-.38c.25-1.09.51-2.17.77-3.23l1.63.4C1906.55 654.51 1906.29 655.58 1906.05 656.67zm1.57-6.4l-1.62-.43c.29-1.09.58-2.16.87-3.2l1.62.45Q1908.06 648.65 1907.62 650.27zm1.79-6.34l-1.6-.48c.32-1.09.65-2.14 1-3.17l1.59.51C1910.06 641.81 1909.73 642.85 1909.41 643.93zm2-6.27l-1.59-.54c.37-1.08.74-2.13 1.1-3.14l1.57.57C1912.14 635.55 1911.77 636.58 1911.41 637.66zM1925.93 788.78c-.31-.47-.61-.95-.9-1.43l1.42-.88c.29.47.59.94.89 1.41z"/><path fill="#ffe6af" d="M676.44,1214.52a36,36,0,1,1,36-36A36.08,36.08,0,0,1,676.44,1214.52Zm0-70.4a34.36,34.36,0,1,0,34.36,34.36A34.41,34.41,0,0,0,676.44,1144.12Z" opacity=".59"/><circle cx="625.61" cy="801" r="15.64" fill="#ffe6af" opacity=".59"/><path fill="#0e0c44" d="M916.37,1188.73h-.08a.85.85,0,0,1-.76-.92l.16-1.65a.84.84,0,0,1,.92-.75.83.83,0,0,1,.75.91l-.16,1.65A.84.84,0,0,1,916.37,1188.73Zm.48-5h-.08a.84.84,0,0,1-.76-.91l.32-3.34a.85.85,0,0,1,.92-.75.83.83,0,0,1,.75.91l-.32,3.34A.83.83,0,0,1,916.85,1183.74Zm.64-6.67h-.08a.85.85,0,0,1-.76-.92l.32-3.33a.85.85,0,0,1,.92-.75.83.83,0,0,1,.75.91l-.32,3.33A.84.84,0,0,1,917.49,1177.07Zm.64-6.67h-.08a.84.84,0,0,1-.76-.91l.32-3.34a.85.85,0,0,1,.92-.75.83.83,0,0,1,.75.91l-.32,3.34A.83.83,0,0,1,918.13,1170.4Zm.64-6.67h-.08a.83.83,0,0,1-.75-.91l.32-3.34a.83.83,0,0,1,1.66.16l-.32,3.34A.83.83,0,0,1,918.77,1163.73Zm.64-6.67h-.08a.83.83,0,0,1-.75-.91l.32-3.34a.84.84,0,0,1,.91-.75.83.83,0,0,1,.75.91l-.32,3.34A.83.83,0,0,1,919.41,1157.06Zm.64-6.66H920a.83.83,0,0,1-.75-.91l.32-3.34a.83.83,0,0,1,1.66.16l-.32,3.34A.84.84,0,0,1,920.05,1150.4Zm.64-6.68h-.08a.83.83,0,0,1-.75-.91l.32-3.34a.85.85,0,0,1,.91-.75.83.83,0,0,1,.75.91l-.32,3.34A.83.83,0,0,1,920.69,1143.72Zm.64-6.66h-.08a.83.83,0,0,1-.75-.91l.32-3.34a.84.84,0,0,1,1.67.16l-.32,3.34A.85.85,0,0,1,921.33,1137.06Zm.64-6.67h-.08a.83.83,0,0,1-.75-.91l.32-3.34a.84.84,0,0,1,1.67.16l-.32,3.34A.85.85,0,0,1,922,1130.39Zm.64-6.67h-.08a.83.83,0,0,1-.75-.91l.32-3.34a.84.84,0,0,1,1.67.16l-.32,3.34A.85.85,0,0,1,922.61,1123.72Zm.65-6.67h-.09a.83.83,0,0,1-.75-.91l.32-3.33a.84.84,0,1,1,1.67.16l-.32,3.33A.84.84,0,0,1,923.26,1117.05Zm.64-6.67h-.09a.83.83,0,0,1-.75-.91l.32-3.33a.84.84,0,1,1,1.67.16l-.32,3.33A.84.84,0,0,1,923.9,1110.38Zm.64-6.67h-.08a.84.84,0,0,1-.76-.91l.32-3.33a.84.84,0,1,1,1.67.16l-.32,3.33A.84.84,0,0,1,924.54,1103.71Zm.64-6.67h-.08a.86.86,0,0,1-.76-.92l.32-3.33a.84.84,0,1,1,1.67.16l-.32,3.33A.84.84,0,0,1,925.18,1097Zm.64-6.67h-.08a.86.86,0,0,1-.76-.92l.32-3.33a.86.86,0,0,1,.92-.76.84.84,0,0,1,.75.92l-.32,3.33A.83.83,0,0,1,925.82,1090.37Zm.64-6.67h-.08a.86.86,0,0,1-.76-.92l.33-3.33a.83.83,0,1,1,1.66.16l-.32,3.33A.83.83,0,0,1,926.46,1083.7Zm.64-6.67H927a.84.84,0,0,1-.75-.92l.32-3.33a.83.83,0,1,1,1.66.16l-.32,3.33A.83.83,0,0,1,927.1,1077Zm.64-6.67h-.08a.84.84,0,0,1-.75-.92l.32-3.33a.83.83,0,1,1,1.66.16l-.32,3.33A.83.83,0,0,1,927.74,1070.36Zm.64-6.67h-.08a.84.84,0,0,1-.75-.92l.32-3.33a.84.84,0,1,1,1.67.16l-.33,3.33A.83.83,0,0,1,928.38,1063.69ZM929,1057h-.08a.84.84,0,0,1-.75-.92l.32-3.33a.84.84,0,0,1,1.67.16l-.32,3.33A.84.84,0,0,1,929,1057Zm.64-6.67h-.08a.85.85,0,0,1-.75-.92l.32-3.33a.84.84,0,0,1,1.67.16l-.32,3.33A.84.84,0,0,1,929.66,1050.35Zm.64-6.67h-.08a.84.84,0,0,1-.75-.92l.32-3.33a.84.84,0,0,1,1.67.16l-.32,3.34A.84.84,0,0,1,930.3,1043.68ZM931,1037h-.09a.83.83,0,0,1-.75-.91l.32-3.34a.85.85,0,0,1,.92-.75.83.83,0,0,1,.75.91l-.32,3.34A.83.83,0,0,1,931,1037Zm.64-6.67h-.09a.83.83,0,0,1-.75-.91l.32-3.34a.85.85,0,0,1,.92-.75.83.83,0,0,1,.75.91l-.32,3.34A.83.83,0,0,1,931.59,1030.34Zm.64-6.67h-.08a.84.84,0,0,1-.76-.91l.32-3.34a.85.85,0,0,1,.92-.75.83.83,0,0,1,.75.91l-.32,3.34A.83.83,0,0,1,932.23,1023.67Zm.64-6.67h-.08a.84.84,0,0,1-.76-.91l.32-3.34a.85.85,0,0,1,.92-.75.83.83,0,0,1,.75.91l-.32,3.34A.83.83,0,0,1,932.87,1017Zm.64-6.67h-.08a.84.84,0,0,1-.76-.91l.33-3.34a.84.84,0,0,1,.91-.75.83.83,0,0,1,.75.91l-.32,3.34A.83.83,0,0,1,933.51,1010.33Zm.64-6.66h-.08a.83.83,0,0,1-.75-.91l.32-3.34a.83.83,0,0,1,1.66.16l-.32,3.34A.84.84,0,0,1,934.15,1003.67Zm.64-6.67h-.08a.83.83,0,0,1-.75-.91l.32-3.34a.83.83,0,1,1,1.66.16l-.32,3.34A.84.84,0,0,1,934.79,997Zm.64-6.67h-.08a.83.83,0,0,1-.75-.91l.32-3.34a.83.83,0,1,1,1.66.16l-.32,3.34A.84.84,0,0,1,935.43,990.33Zm.64-6.67H936a.83.83,0,0,1-.75-.91l.32-3.34a.82.82,0,0,1,.91-.75.85.85,0,0,1,.76.91l-.33,3.34A.84.84,0,0,1,936.07,983.66Zm.64-6.67h-.08a.83.83,0,0,1-.75-.91l.32-3.34a.82.82,0,0,1,.91-.75.85.85,0,0,1,.76.91l-.32,3.34A.85.85,0,0,1,936.71,977Zm.64-6.67h-.08a.83.83,0,0,1-.75-.91l.32-3.33a.82.82,0,0,1,.91-.76.86.86,0,0,1,.76.92l-.32,3.33A.85.85,0,0,1,937.35,970.32Zm.64-6.67h-.08a.83.83,0,0,1-.75-.91l.32-3.33a.83.83,0,0,1,.91-.76.86.86,0,0,1,.76.92l-.32,3.33A.85.85,0,0,1,938,963.65Zm.65-6.67h-.09a.83.83,0,0,1-.75-.91l.32-3.33a.84.84,0,1,1,1.67.16l-.32,3.33A.84.84,0,0,1,938.64,957Z"/><rect width="2530.88" height="5.03" x="218.43" y="1932.94" fill="#0e010f"/><path fill="#992c1a" d="M1547.82,1933.56H1304.47c-.94-5.94-1.59-11.62-2-17h245.61A79,79,0,0,1,1547.82,1933.56Z"/><path fill="#6322f9" d="M908.36,947.63l35,2.21A14.94,14.94,0,0,1,957.51,965L956,1020c-.44,16,13.33,28.87,29.62,27.66l191.6-14.26c16.62-1.24,28.32-16.55,24.87-32.54l-11.84-54.72a18.42,18.42,0,0,0-18.58-14.37l-255.22,6.49a8.22,8.22,0,0,0-8.1,8.14Z"/><g opacity=".31"><path fill="#e4e1ff" d="M911.71 945.08h-.05L910 945a.84.84 0 11.09-1.67l1.67.09a.84.84 0 010 1.67zM925.13 945.8h0l-3.36-.18a.83.83 0 01-.79-.88.84.84 0 01.88-.79l3.36.18a.84.84 0 010 1.67zm-6.71-.36h0l-3.35-.18a.84.84 0 01-.8-.88.85.85 0 01.89-.79l3.35.18a.84.84 0 010 1.67zM989.38 1043.52a.84.84 0 01-.84-.82.82.82 0 01.82-.85c.52 0 1 0 1.57-.08l1.74-.13a.81.81 0 01.9.77.84.84 0 01-.77.9l-1.74.13c-.56 0-1.12.07-1.67.08zm-3.36-.16h-.09a27.64 27.64 0 01-3.41-.61.84.84 0 01-.62-1 .82.82 0 011-.61 26.78 26.78 0 003.2.56.84.84 0 01.74.93A.83.83 0 01986 1043.36zm10.06-.3a.84.84 0 01-.06-1.68l3.35-.25a.8.8 0 01.9.77.83.83 0 01-.77.89l-3.35.26zm6.7-.52a.84.84 0 01-.06-1.67l3.35-.26a.84.84 0 01.13 1.67l-3.35.26zm6.71-.52a.84.84 0 01-.07-1.67l3.35-.26a.81.81 0 01.9.77.82.82 0 01-.77.9l-3.35.26zm-30-.25a.8.8 0 01-.3-.06 26.35 26.35 0 01-3.15-1.45.84.84 0 01.8-1.47 26.26 26.26 0 002.95 1.36.84.84 0 01.48 1.09A.83.83 0 01979.51 1041.77zm36.68-.26a.84.84 0 01-.83-.78.82.82 0 01.77-.89l3.35-.26a.81.81 0 01.9.77.85.85 0 01-.77.9l-3.36.26zm6.7-.52a.84.84 0 01-.06-1.67l3.35-.26a.81.81 0 01.9.77.83.83 0 01-.77.9l-3.35.26zm6.71-.51a.84.84 0 01-.07-1.68l3.35-.25a.81.81 0 01.9.77.82.82 0 01-.77.89l-3.35.26zm6.7-.52a.84.84 0 01-.07-1.67l3.36-.26a.81.81 0 01.9.77.85.85 0 01-.77.9l-3.36.26zm6.7-.52a.83.83 0 01-.83-.77.84.84 0 01.77-.9l3.35-.25a.81.81 0 01.9.77.83.83 0 01-.77.89l-3.35.26zm6.7-.51a.84.84 0 01-.06-1.67l3.35-.26a.8.8 0 01.9.77.84.84 0 01-.77.9l-3.35.26zm-76.08-.35a.82.82 0 01-.49-.16 25.59 25.59 0 01-2.68-2.19.83.83 0 111.14-1.22 26.2 26.2 0 002.52 2 .84.84 0 01.19 1.17A.83.83 0 01973.62 1038.58zm82.79-.17a.84.84 0 01-.07-1.67l3.36-.26a.8.8 0 01.89.77.82.82 0 01-.77.9l-3.35.26zm6.7-.51a.84.84 0 01-.06-1.68l3.35-.25a.84.84 0 11.13 1.67l-3.35.25zm6.7-.52a.84.84 0 01-.06-1.67l3.35-.26a.8.8 0 01.9.77.83.83 0 01-.77.9l-3.35.26zm6.71-.51a.84.84 0 01-.07-1.68l3.35-.25a.79.79 0 01.9.77.82.82 0 01-.77.89l-3.35.26zm6.7-.52a.84.84 0 01-.06-1.67l3.35-.26a.84.84 0 11.13 1.67l-3.36.26zm6.7-.52a.83.83 0 01-.83-.77.84.84 0 01.77-.9l3.35-.26a.81.81 0 01.9.77.83.83 0 01-.77.9l-3.35.26zm6.71-.51a.85.85 0 01-.84-.78.83.83 0 01.77-.89l3.35-.26a.81.81 0 01.9.77.84.84 0 01-.77.9l-3.35.26zm6.7-.52a.84.84 0 01-.06-1.67l3.35-.26a.82.82 0 01.9.77.84.84 0 01-.77.9l-3.36.26zm6.7-.51a.84.84 0 01-.06-1.68l3.35-.25a.81.81 0 01.9.77.83.83 0 01-.77.89l-3.35.26zM968.71 1034a.85.85 0 01-.65-.3 26.67 26.67 0 01-2-2.79.84.84 0 011.41-.91 26.11 26.11 0 001.93 2.63.83.83 0 01-.64 1.37zm148-.25a.83.83 0 01-.83-.77.84.84 0 01.77-.9l3.35-.26a.8.8 0 01.9.77.83.83 0 01-.77.9l-3.35.26zm6.71-.52a.84.84 0 01-.07-1.67l3.36-.26a.82.82 0 01.9.77.83.83 0 01-.78.9l-3.35.26zm6.7-.51a.84.84 0 01-.06-1.67l3.35-.26a.8.8 0 01.9.77.85.85 0 01-.77.9l-3.35.26zm6.7-.52a.84.84 0 01-.06-1.67l3.35-.26a.81.81 0 01.9.77.83.83 0 01-.77.9l-3.35.26zm6.71-.51a.84.84 0 01-.07-1.68l3.35-.25a.8.8 0 01.9.77.84.84 0 01-.77.9l-3.35.25zm6.7-.52a.84.84 0 01-.06-1.67l3.35-.26a.82.82 0 01.9.77.84.84 0 01-.77.9l-3.35.26zm6.7-.52a.83.83 0 01-.83-.77.84.84 0 01.77-.9l3.35-.26a.84.84 0 01.13 1.68l-3.35.25zm6.71-.51a.84.84 0 01-.07-1.67l3.35-.26a.8.8 0 01.9.77.84.84 0 01-.77.9l-3.35.26zm6.7-.52a.84.84 0 01-.06-1.67l3.34-.26a.84.84 0 01.14 1.67l-3.36.26zm6.67-.73a.83.83 0 01-.16-1.65 26.85 26.85 0 003.14-.85.84.84 0 011.06.53.83.83 0 01-.52 1.06 27.93 27.93 0 01-3.35.9zm-211.95-.53a.83.83 0 01-.75-.48 26.37 26.37 0 01-1.29-3.22.82.82 0 01.53-1.05.83.83 0 011.06.53 24.7 24.7 0 001.21 3 .84.84 0 01-.4 1.12A.9.9 0 01965.08 1028.38zm218.3-1.62a.84.84 0 01-.37-1.59 23.45 23.45 0 002.79-1.64.84.84 0 111 1.38 24.06 24.06 0 01-3 1.76A.81.81 0 011183.38 1026.76zm5.52-3.8a.84.84 0 01-.57-1.45 23.39 23.39 0 002.2-2.37.84.84 0 011.18-.13.83.83 0 01.13 1.17 23.78 23.78 0 01-2.37 2.55A.85.85 0 011188.9 1023zM963 1022a.84.84 0 01-.82-.68 26.15 26.15 0 01-.44-3.43.83.83 0 01.78-.89.81.81 0 01.89.78 26.48 26.48 0 00.41 3.22.83.83 0 01-.66 1zm230.09-4.28a.91.91 0 01-.42-.11.84.84 0 01-.3-1.15 22.39 22.39 0 001.42-2.91.84.84 0 011.55.63 23.12 23.12 0 01-1.53 3.12A.82.82 0 011193.08 1017.73zm-230.53-2.41h0a.84.84 0 01-.81-.86l.09-3.36a.89.89 0 01.86-.82.84.84 0 01.81.86l-.09 3.36A.83.83 0 01962.55 1015.32zm233-3.8l-.2 0a.85.85 0 01-.61-1 25.79 25.79 0 00.58-3.2.83.83 0 01.92-.74.85.85 0 01.74.93 25.76 25.76 0 01-.62 3.42A.82.82 0 011195.59 1011.52zm-232.86-2.92h0a.84.84 0 01-.81-.86l.09-3.36a.85.85 0 01.86-.82.84.84 0 01.81.86l-.09 3.36A.83.83 0 01962.73 1008.6zm233.63-3.74a.83.83 0 01-.84-.82 27.63 27.63 0 00-.23-3.26.84.84 0 011.67-.21 33.52 33.52 0 01.24 3.45.84.84 0 01-.83.84zm-233.45-3h0a.84.84 0 01-.81-.86l.09-3.36a.87.87 0 01.86-.82.83.83 0 01.81.86l-.09 3.36A.83.83 0 01962.91 1001.88zm232.61-3.67a.85.85 0 01-.82-.66l-.73-3.28a.83.83 0 111.63-.36l.74 3.27a.85.85 0 01-.64 1zm-232.43-3.05h0a.84.84 0 01-.81-.86l.09-3.36a.89.89 0 01.86-.82.84.84 0 01.81.86l-.09 3.36A.83.83 0 01963.09 995.16zM1194 991.65a.83.83 0 01-.81-.66l-.74-3.28a.83.83 0 111.63-.36l.74 3.28a.84.84 0 01-.63 1zm-230.77-3.21h0a.84.84 0 01-.81-.86l.09-3.36a.87.87 0 01.86-.82.83.83 0 01.81.86l-.09 3.36A.83.83 0 01963.27 988.44zm229.3-3.35a.85.85 0 01-.82-.66l-.74-3.27a.85.85 0 01.64-1 .84.84 0 011 .64l.74 3.28a.84.84 0 01-.64 1zm-229.12-3.37h0a.84.84 0 01-.81-.86l.09-3.36a.91.91 0 01.86-.82.83.83 0 01.81.86l-.09 3.36A.83.83 0 01963.45 981.72zm227.64-3.19a.82.82 0 01-.81-.65l-.74-3.28a.85.85 0 01.63-1 .84.84 0 011 .64l.74 3.28a.84.84 0 01-.63 1zM963.63 975h0a.84.84 0 01-.81-.86l.09-3.36a.88.88 0 01.86-.82.83.83 0 01.81.86l-.09 3.36A.83.83 0 01963.63 975zm226-3a.83.83 0 01-.82-.65l-.74-3.28a.84.84 0 01.64-1 .83.83 0 011 .63l.74 3.28a.84.84 0 01-.64 1zm-225.81-3.69h0a.84.84 0 01-.81-.86l.09-3.37a.84.84 0 111.67.05l-.09 3.36A.83.83 0 01963.81 968.28zm224.33-2.87a.82.82 0 01-.81-.65l-.74-3.28a.84.84 0 111.63-.37l.74 3.28a.84.84 0 01-.63 1A.62.62 0 011188.14 965.41zM964 961.55a.83.83 0 01-.84-.82 13.78 13.78 0 00-.4-3.14.84.84 0 01.62-1 .83.83 0 011 .61 15.42 15.42 0 01.44 3.52.82.82 0 01-.82.84zm222.69-2.7a.83.83 0 01-.82-.65l-.74-3.28a.84.84 0 011.64-.37l.73 3.28a.83.83 0 01-.63 1A.55.55 0 011186.67 958.85zm-224.28-3.76a.84.84 0 01-.75-.46 13.68 13.68 0 00-1.75-2.63.84.84 0 011.28-1.08 14.83 14.83 0 012 3 .84.84 0 01-.36 1.13A.92.92 0 01962.39 955.09zm222.8-2.8a.82.82 0 01-.81-.65l-.74-3.28a.84.84 0 111.63-.37l.74 3.28a.84.84 0 01-.63 1A.65.65 0 011185.19 952.29zM958.09 950a.84.84 0 01-.5-.17 13.83 13.83 0 00-2.74-1.58.84.84 0 01.67-1.54 15.44 15.44 0 013.07 1.78.84.84 0 01-.5 1.51zM952 947.35h-.14a12.7 12.7 0 00-1.51-.18l-1.74-.09a.84.84 0 01.09-1.68l1.75.1a15.78 15.78 0 011.7.2.84.84 0 01-.15 1.66zm-6.7-.46h0l-3.35-.18A.84.84 0 01942 945l3.35.18a.84.84 0 010 1.68zm-6.71-.36h0l-3.35-.18a.84.84 0 01-.8-.88.85.85 0 01.89-.79l3.35.18a.84.84 0 010 1.68zm-6.72-.37h0l-3.36-.18a.84.84 0 01-.79-.88.85.85 0 01.88-.79l3.36.18a.84.84 0 01.79.88A.83.83 0 01931.84 946.16zm251.71-.38a.84.84 0 01-.79-.54 16.93 16.93 0 00-1.4-2.87.84.84 0 011.43-.88 18.46 18.46 0 011.54 3.16.83.83 0 01-.49 1.08A.93.93 0 011183.55 945.78zm-3.49-5.7a.83.83 0 01-.62-.27 17.24 17.24 0 00-2.37-2.15.83.83 0 01-.17-1.17.84.84 0 011.18-.17 18.7 18.7 0 012.59 2.36.84.84 0 01-.05 1.19A.85.85 0 011180.06 940.08zm-5.35-4a.83.83 0 01-.37-.08 16.86 16.86 0 00-3-1.13.83.83 0 11.44-1.61 18.63 18.63 0 013.29 1.23.84.84 0 01.38 1.12A.82.82 0 011174.71 936.07zM1168.15 934.32h-.06c-.53 0-1.06 0-1.6 0a.85.85 0 01-.86-.81.84.84 0 01.82-.86 16.93 16.93 0 011.75 0 .84.84 0 010 1.68z"/></g><circle cx="1085.77" cy="1041.77" r="17.61" fill="#3a28a0"/><circle cx="1087.45" cy="1041.77" r="17.61" fill="#865cf7"/><circle cx="1087.45" cy="1041.77" r="13.34" fill="#6322f9"/><circle cx="1087.45" cy="1041.77" r="10.22" fill="#fff"/><circle cx="1087.45" cy="1041.77" r="8.39" fill="#865cf7"/><circle cx="2355.89" cy="385.99" r="49.55" fill="#7534ff" opacity=".41"/><path fill="#7534ff" d="M2360.91,439.72a50.39,50.39,0,1,1,50.39-50.38A50.44,50.44,0,0,1,2360.91,439.72Zm0-99.09a48.71,48.71,0,1,0,48.71,48.71A48.76,48.76,0,0,0,2360.91,340.63Z"/><path fill="#7534ff" d="M2649,1250.41a18.36,18.36,0,1,1,18.36-18.36A18.38,18.38,0,0,1,2649,1250.41Zm0-35a16.68,16.68,0,1,0,16.68,16.68A16.7,16.7,0,0,0,2649,1215.37Z" opacity=".41"/><circle cx="1329.54" cy="48.3" r="17.52" fill="#7534ff" opacity=".41"/><rect width="147.26" height="147.26" x="258.47" y="1233.84" fill="#ff8600" opacity=".3" transform="rotate(-45 332.101 1307.47)"/><path fill="#ff8600" d="M307.67 1404.64L202.36 1299.33 307.67 1194 413 1299.33zm-103-105.31l103 102.94 102.94-102.94L307.67 1196.38zM1015.59 318.43L994 296.82l21.6-21.61 21.61 21.61zm-19.23-21.61l19.23 19.24 19.24-19.24-19.24-19.24zM2435.32 874.17l-21.61-21.61 21.61-21.6 21.6 21.6zm-19.24-21.61l19.24 19.24 19.24-19.24-19.24-19.23z" opacity=".88"/></svg>